<?xml version="1.0" encoding="utf-8"?>
<!-- Generator: Adobe Illustrator 25.0.0, SVG Export Plug-In . SVG Version: 6.00 Build 0)  -->
<svg version="1.1" id="Layer_1" xmlns="http://www.w3.org/2000/svg" xmlns:xlink="http://www.w3.org/1999/xlink" x="0px" y="0px"
	 viewBox="0 0 1920 1080" style="enable-background:new 0 0 1920 1080;" xml:space="preserve">
<style type="text/css">
	.st0{fill:#161B25;}
	.st1{fill:url(#SVGID_1_);}
</style>
<g>
	<path class="st0" d="M842.9,512.44v11.17h50.67v-11.17H842.9z M854.07,556.12H842.9v11.09h50.67v-11.08h-39.5V556.12z
		 M842.9,534.28v11.17h40.67v-11.17H842.9z"/>
	<path class="st0" d="M764.97,534.86c-2.5-16.96-17.11-29.96-34.75-29.96c-19.4,0-35.13,15.72-35.13,35.13
		c0,6.82,1.95,13.2,5.33,18.59c0.96,1.54,2.04,3,3.22,4.36l7.37-8.81c-0.89-1.2-1.66-2.49-2.31-3.84
		c-1.49-3.12-2.34-6.61-2.34-10.31c0-13.19,10.69-23.86,23.86-23.86c11.4,0,20.94,7.99,23.3,18.69c0.37,1.66,0.57,3.4,0.57,5.18
		c0,1.32-0.11,2.62-0.32,3.88c-0.37,2.27-1.06,4.42-2.02,6.43c-0.63,1.3-1.36,2.53-2.21,3.68c-0.03,0.06-0.08,0.11-0.11,0.17
		c-0.99,1.34-2.11,2.57-3.35,3.68c-0.3,0.26-0.61,0.51-0.91,0.77c-0.11,0.08-0.21,0.17-0.31,0.24c-0.1,0.08-0.2,0.15-0.29,0.23
		c-0.05,0.03-0.08,0.06-0.13,0.1c-1.39,1.03-2.9,1.92-4.51,2.64c-0.92,0.41-1.87,0.76-2.85,1.05c-2.17,0.65-4.47,0.99-6.86,0.99
		c-0.01,0-0.01,0-0.02,0c-2.37,0-4.67-0.35-6.83-0.99c-0.98-0.29-1.94-0.64-2.86-1.05l-6.7,8c-0.25,0.29-0.51,0.57-0.78,0.84
		c1.61,0.91,3.29,1.69,5.04,2.34c1.39,0.51,2.82,0.93,4.29,1.27c2.52,0.58,5.15,0.88,7.84,0.88c4.26,0,8.35-0.76,12.14-2.15
		c1.75-0.65,3.44-1.43,5.03-2.34c1.84-1.01,3.58-2.21,5.2-3.54c0.01-0.02,0.03-0.02,0.04-0.03c0.37-0.31,0.74-0.63,1.09-0.95
		c0.12-0.11,0.23-0.21,0.35-0.32c0.47-0.44,0.93-0.88,1.38-1.34c0.47-0.48,0.92-0.98,1.36-1.48c1.18-1.36,2.27-2.82,3.23-4.37
		c0.72-1.14,1.36-2.32,1.94-3.55c0.11-0.22,0.2-0.44,0.3-0.66c0.36-0.8,0.69-1.6,0.98-2.43c1.36-3.74,2.09-7.76,2.09-11.96
		C765.35,538.27,765.22,536.55,764.97,534.86z"/>
	<linearGradient id="SVGID_1_" gradientUnits="userSpaceOnUse" x1="751.8475" y1="559.483" x2="756.0789" y2="540.8907">
		<stop  offset="0" style="stop-color:#030405"/>
		<stop  offset="0.7726" style="stop-color:#161B25"/>
	</linearGradient>
	<path class="st1" d="M765.35,540.03c0,4.2-0.74,8.22-2.09,11.96c-0.29,0.83-0.62,1.63-0.98,2.43c-0.1,0.22-0.2,0.44-0.3,0.66
		c-0.58,1.23-1.23,2.41-1.94,3.55c-0.96,1.54-2.05,3.01-3.23,4.37c-0.44,0.5-0.9,1-1.36,1.48c-0.44,0.46-0.9,0.9-1.38,1.34h-9.63
		v-17.6l4.99,5.96c0.04-0.05,0.08-0.11,0.11-0.17c0.84-1.14,1.57-2.37,2.21-3.68c0.96-2,1.65-4.16,2.02-6.43
		c0.21-1.26,0.32-2.56,0.32-3.88c0-1.78-0.2-3.51-0.57-5.18h11.45C765.22,536.55,765.35,538.27,765.35,540.03z"/>
	<path class="st0" d="M761.98,555.08c-0.58,1.23-1.23,2.41-1.94,3.55c-0.96,1.54-2.05,3.01-3.23,4.37c-0.44,0.5-0.9,1-1.36,1.48
		c-0.44,0.46-0.9,0.9-1.38,1.34c-0.47,0.44-0.95,0.86-1.44,1.27c-0.01,0.01-0.03,0.02-0.04,0.03c-1.62,1.33-3.36,2.53-5.2,3.54
		c-0.26-0.26-0.52-0.53-0.76-0.82l-6.7-8l-9.7-11.59l-9.7,11.59c-1.65-0.75-3.21-1.66-4.65-2.74c-0.2-0.15-0.4-0.31-0.59-0.47
		c-0.31-0.26-0.62-0.5-0.91-0.76c-1.25-1.11-2.37-2.34-3.36-3.68l19.21-22.93l14.21,16.97l4.99,5.96l0.78,0.93l0.04,0.05l0.54,0.64
		l0.01,0.01c1.33,1.4,3.2,2.28,5.28,2.28C758.5,558.09,760.66,556.9,761.98,555.08z"/>
	<path class="st0" d="M775.82,567.21v-32.93h39.25c2.96,0,5.34-2.38,5.34-5.34c0-2.96-2.38-5.34-5.34-5.34h-31.48l-7.78-11.17h39.25
		c9.12,0,16.51,7.39,16.51,16.51s-7.39,16.51-16.51,16.51h-28.09v21.76H775.82z"/>
	<path class="st0" d="M917.96,536.37v30.95h-11.17v-54.89l39.5,31.5v-31.5h11.17v54.89L917.96,536.37z"/>
	<path class="st0" d="M1035.16,578.89l-31.21-54.16l-16.74,31.3h13.83l-6.98,11.17h-26.28l36.16-65.78l37.59,65.06L1035.16,578.89z"
		/>
	<path class="st0" d="M1062.64,567.21c-9.28,0-16.75-7.47-16.75-16.67v-38.1h11.17v38.1c0,3.04,2.46,5.58,5.58,5.58h22.25
		c3.04,0,5.58-2.55,5.58-5.58v-38.1h11.17v38.1c0,9.2-7.55,16.67-16.75,16.67H1062.64z"/>
	<path class="st0" d="M1134.57,567.21V523.6h-22.25v-11.17h55.76l-4.98,11.17h-17.35v43.61H1134.57z"/>
	<path class="st0" d="M1197.22,511.86c-15.1,0-27.34,12.24-27.34,27.34c0,15.1,12.24,27.34,27.34,27.34s27.34-12.24,27.34-27.34
		C1224.56,524.1,1212.32,511.86,1197.22,511.86z M1197.22,556.09c-9.33,0-16.89-7.56-16.89-16.89c0-9.33,7.56-16.89,16.89-16.89
		c9.33,0,16.89,7.56,16.89,16.89C1214.11,548.53,1206.55,556.09,1197.22,556.09z"/>
</g>
</svg>
