<svg xmlns="http://www.w3.org/2000/svg" width="517.303" height="300.939" viewBox="0 0 517.303 300.939">
  <g id="City_driver-pana" data-name="City driver-pana" transform="translate(0)">
    <g id="freepik--Floor--inject-2" transform="translate(6.4 298.555)">
      <path id="Path_6340" data-name="Path 6340" d="M40.06,444.018c0,.114,114.392.2,255.429.2s255.475-.084,255.475-.2-114.346-.2-255.475-.2S40.06,443.912,40.06,444.018Z" transform="translate(-40.06 -443.82)" fill="#263238"/>
    </g>
    <g id="freepik--Device--inject-2" transform="translate(277.386 0)">
      <path id="Path_6341" data-name="Path 6341" d="M185.68,351.083l101.366-.465a22.116,22.116,0,0,0,21.978-22.177L307.949,74.316A22.116,22.116,0,0,0,285.765,52.33L184.4,52.8A22.116,22.116,0,0,0,162.42,74.957L163.5,329.082a22.116,22.116,0,0,0,22.184,22Z" transform="translate(-162.42 -52.33)" fill="#455a64"/>
      <path id="Path_6342" data-name="Path 6342" d="M186.639,64.3l19.652-.092a4.888,4.888,0,0,1,4.8,4.965v3.569a4.873,4.873,0,0,0,4.8,4.949l38.314-.175a4.9,4.9,0,0,0,4.751-5.01V68.932a4.888,4.888,0,0,1,4.736-4.972H270.6l17.2-.13a15.466,15.466,0,0,1,15.542,15.382l1.045,248.047A15.466,15.466,0,0,1,289,342.793l-101.168.465a15.466,15.466,0,0,1-15.534-15.4L171.25,79.822A15.458,15.458,0,0,1,186.639,64.3Z" transform="translate(-164.516 -55.06)" fill="#cfd1d4"/>
      <path id="Path_6343" data-name="Path 6343" d="M203.834,123.05H187.255l-14.795,14.8,15.382,15.382,15.817-15.824Z" transform="translate(-64.886 -69.118)" fill="#ebebeb"/>
      <path id="Path_6344" data-name="Path 6344" d="M217.517,131.355l8.312-8.3h-18.7Z" transform="translate(-113.321 -69.118)" fill="#ebebeb"/>
      <path id="Path_6345" data-name="Path 6345" d="M293.868,138.308,279.309,123.75H228.443s-7.786,34.775,22.878,57.1Z" transform="translate(-196.94 -69.284)" fill="#ebebeb"/>
      <path id="Path_6346" data-name="Path 6346" d="M242.065,148.92l15.572,15.58-43.1,43.1L198.97,191.5Z" transform="translate(-138.907 -75.259)" fill="#ebebeb"/>
      <path id="Path_6347" data-name="Path 6347" d="M181.971,174.8l-9.761-10.127,9.571-9.571Z" transform="translate(-42.833 -76.726)" fill="#ebebeb"/>
      <path id="Path_6348" data-name="Path 6348" d="M215.2,175.48l14.993,14.993v20.835l-30.954,31.671-26.226-24.4Z" transform="translate(-91.662 -81.564)" fill="#ebebeb"/>
      <path id="Path_6349" data-name="Path 6349" d="M332.707,185.224s-32.121-23.549-21.734-61.474H291l.244,107.04Z" transform="translate(-284.159 -69.284)" fill="#ebebeb"/>
      <path id="Path_6350" data-name="Path 6350" d="M309.377,212.46,324.9,228.673,277.286,276.3,262.72,260.863Z" transform="translate(-254.789 -90.343)" fill="#ebebeb"/>
      <path id="Path_6351" data-name="Path 6351" d="M270.977,239.54l24.411,24.236-48.822,48.479L222.2,288.7Z" transform="translate(-194.372 -96.772)" fill="#ebebeb"/>
      <path id="Path_6352" data-name="Path 6352" d="M310.252,386.73,272.93,348.05l-35.5,36.186Z" transform="translate(-220.851 -122.531)" fill="#ebebeb"/>
      <path id="Path_6353" data-name="Path 6353" d="M332.893,329.512,294,291c0,1.708.336,79.853.336,79.853Z" transform="translate(-286.633 -108.988)" fill="#ebebeb"/>
      <path id="Path_6354" data-name="Path 6354" d="M217.877,313.14,195.83,335.187,239.36,380.1l20.11-24.121Z" transform="translate(-138.344 -114.243)" fill="#ebebeb"/>
      <path id="Path_6355" data-name="Path 6355" d="M227.656,339.946c-2.082-.206-55.4-50.134-55.4-50.134l55.4-57.4Z" transform="translate(-88.556 -95.079)" fill="#ebebeb"/>
      <path id="Path_6356" data-name="Path 6356" d="M201.861,384.8,189.026,373.42,171.25,394.415h30.611v-8.03" transform="translate(-61.991 -128.553)" fill="#ebebeb"/>
      <path id="Path_6357" data-name="Path 6357" d="M188,101.079a31.914,31.914,0,0,0,3.813-3.31h0v-.29h0l-.053-.046-.092-.084-.191-.175-.366-.343-.694-.641-1.2-1.068A5.842,5.842,0,0,0,188,94.17a5.339,5.339,0,0,0,.976,1.113l1.144,1.129.679.656.366.351.183.175.1.084.046.046h0v-.29h0A32.38,32.38,0,0,0,188,101.079Z" transform="translate(-64.716 -62.262)" fill="#263238"/>
      <path id="Path_6358" data-name="Path 6358" d="M329.07,95.344a.831.831,0,1,0,.824-.824.831.831,0,0,0-.824.824Z" transform="translate(-311.217 -62.345)" fill="#263238"/>
      <path id="Path_6359" data-name="Path 6359" d="M329.324,98.5a.831.831,0,1,0,1.174,0,.831.831,0,0,0-1.174,0Z" transform="translate(-311.235 -63.232)" fill="#263238"/>
      <path id="Path_6360" data-name="Path 6360" d="M329.079,102.787a.831.831,0,1,0,.389-.786.831.831,0,0,0-.389.786Z" transform="translate(-311.226 -64.092)" fill="#263238"/>
      <rect id="Rectangle_98" data-name="Rectangle 98" width="35.675" height="2.974" transform="translate(53.589 36.377)" fill="#263238"/>
      <path id="Path_6361" data-name="Path 6361" d="M227.56,164.344c0-13.895,14.6-22.7,29.483-15.733a16.9,16.9,0,0,1,7.84,7.512c3.744,7.252,2.09,15.534-1.3,22.413L251.987,207.9a5,5,0,0,1-9.3,0l-11.355-29.521C227.392,169.385,227.56,164.344,227.56,164.344Zm13.956,12.126c10.005,5.819,20.148-4.934,14.665-15.55a8.388,8.388,0,0,0-3.18-3.371c-10.013-5.819-20.156,4.934-14.665,15.55A8.32,8.32,0,0,0,241.516,176.47Z" transform="translate(-170.09 -74.608)" fill="#818b94"/>
    </g>
    <g id="freepik--Car--inject-2" transform="translate(0 112.506)">
      <rect id="Rectangle_99" data-name="Rectangle 99" width="423.112" height="62.084" transform="translate(31.512 83.325)" fill="#818b94"/>
      <g id="Group_628" data-name="Group 628" transform="translate(31.512 83.325)" opacity="0.5">
        <rect id="Rectangle_100" data-name="Rectangle 100" width="423.112" height="62.084"/>
      </g>
      <ellipse id="Ellipse_47" data-name="Ellipse 47" cx="40.8" cy="40.8" rx="40.8" ry="40.8" transform="translate(435.733 188.434) rotate(-176.15)" fill="#263238"/>
      <path id="Path_6362" data-name="Path 6362" d="M224.914,389.07v.107a40.8,40.8,0,1,1-81.6,1.182c0-.038,0-.076,0-.107Z" transform="translate(213.642 -244.774)" fill="#263238"/>
      <path id="Path_6363" data-name="Path 6363" d="M216.53,380.656a28.644,28.644,0,1,1-29.048-28.217A28.644,28.644,0,0,1,216.53,380.656Z" transform="translate(209.878 -236.077)" fill="#b5b8b9"/>
      <path id="Path_6364" data-name="Path 6364" d="M187.485,352.429a28.636,28.636,0,0,1,29.048,28.217l-57.28.831A28.644,28.644,0,0,1,187.485,352.429Z" transform="translate(209.875 -236.075)" fill="#e0e0e0"/>
      <path id="Path_6365" data-name="Path 6365" d="M208.823,384.3a17.449,17.449,0,1,1-17.693-17.189A17.449,17.449,0,0,1,208.823,384.3Z" transform="translate(206.39 -239.56)" fill="#263238"/>
      <ellipse id="Ellipse_48" data-name="Ellipse 48" cx="40.8" cy="40.8" rx="40.8" ry="40.8" transform="matrix(-0.998, -0.058, 0.058, -0.998, 124.136, 188.044)" fill="#263238"/>
      <path id="Path_6366" data-name="Path 6366" d="M634.014,389.07v.107a40.8,40.8,0,1,1-81.6,1.182v-.107Z" transform="translate(-507.442 -244.774)" fill="#263238"/>
      <path id="Path_6367" data-name="Path 6367" d="M625.63,380.656a28.644,28.644,0,1,1-29.048-28.217A28.644,28.644,0,0,1,625.63,380.656Z" transform="translate(-511.206 -236.077)" fill="#b5b8b9"/>
      <path id="Path_6368" data-name="Path 6368" d="M596.585,352.429a28.636,28.636,0,0,1,29.048,28.217l-57.28.831A28.644,28.644,0,0,1,596.585,352.429Z" transform="translate(-511.209 -236.075)" fill="#e0e0e0"/>
      <path id="Path_6369" data-name="Path 6369" d="M617.893,384.3A17.449,17.449,0,1,1,600.2,367.109,17.449,17.449,0,0,1,617.893,384.3Z" transform="translate(-514.641 -239.56)" fill="#263238"/>
      <path id="Path_6370" data-name="Path 6370" d="M431.773,248.255s60.078,4.431,82.362,9.426c15.694,3.516,45.955,9.594,45.589,28.628l-2.4,13.651s11.218,5.125,11.218,18.211,2.738,33.372-23.466,34.188c-4.316.13-12.514,0-12.514,0s5.026-55.808-46.237-57.44c-52.155-1.662-48.693,56.929-48.693,56.929H219.957s8.938-57.081-47.206-57.2-47.6,57.57-47.6,57.57-20.652,1.784-30.26-15.573-7.115-29.742-7.115-29.742l.32-10.974a7.108,7.108,0,0,1,6.864-6.864h0s-3.752-27.622,2.006-32.4,37.307-33.631,37.307-33.631l-1.525-.938a3.538,3.538,0,0,1,.763-6.345c11.981-4.118,35.667-12.27,41.234-14.215a10.022,10.022,0,0,1,2.585-.549c3.325-.252,12.736-.846,30.009-1.03,21.04-.229,104.577,0,104.577,0s28.75,2.364,44.765,9.411C373.471,216.782,431.773,248.255,431.773,248.255Z" transform="translate(-87.483 -199.857)" fill="#818b94"/>
      <g id="Group_629" data-name="Group 629" transform="translate(462.974 116.52)" opacity="0.4">
        <path id="Path_6371" data-name="Path 6371" d="M98.4,352.916c2.181-.442,5.521-.48,7.184.991,1.235,1.1,1.563,2.875,1.746,4.515a19.187,19.187,0,0,1-.153,6.764,8.252,8.252,0,0,1-3.813,5.392,5.3,5.3,0,0,1-6.276-.763c-1.418-1.525-1.579-3.813-1.525-5.849.053-2.944-.183-5.437.358-8.328a4.012,4.012,0,0,1,.763-1.685,2.288,2.288,0,0,1,1.739-1.045" transform="translate(-95.56 -352.647)"/>
      </g>
      <path id="Path_6372" data-name="Path 6372" d="M120.718,326.338c-6.375,0-12.56-.351-18.928-.763a3.05,3.05,0,0,1-1.937-.587,3.1,3.1,0,0,1-.663-2.288c0-3.417.137-7.306,2.73-9.533a10.263,10.263,0,0,1,5.842-1.975,37.619,37.619,0,0,1,15.359,1.525Z" transform="translate(349.105 -226.235)" fill="#b5b8b9"/>
      <path id="Path_6373" data-name="Path 6373" d="M115.783,375a4.987,4.987,0,0,1,.046-.549c.046-.366.061-.908.107-1.6.076-1.418.191-3.485.336-6.154s.328-5.941.709-9.723a76.869,76.869,0,0,1,2.25-12.682,57.767,57.767,0,0,1,6.139-14.3,44.994,44.994,0,0,1,11.874-13.239c10.288-7.321,24.19-11.439,38.733-11.637s28.453,4.4,38.489,12.11a56.433,56.433,0,0,1,12.484,12.743,59.987,59.987,0,0,1,7.306,13.727,55.585,55.585,0,0,1,3.089,12.484,52.335,52.335,0,0,1,.374,9.708,48.581,48.581,0,0,1-.763,6.1c-.122.679-.221,1.2-.282,1.571s-.084.541-.084.541.046-.175.122-.526l.328-1.525a44.5,44.5,0,0,0,.824-6.1,51.409,51.409,0,0,0-.305-9.746,55.6,55.6,0,0,0-3.05-12.553,60.247,60.247,0,0,0-7.306-13.841,56.432,56.432,0,0,0-12.537-12.842c-10.082-7.748-24.022-12.392-38.68-12.2S147.4,309.115,137.03,316.5a45.3,45.3,0,0,0-11.935,13.361,57.594,57.594,0,0,0-6.1,14.406,75.538,75.538,0,0,0-2.2,12.736c-.358,3.813-.519,7.062-.641,9.731s-.206,4.743-.267,6.162c0,.694-.046,1.228-.061,1.6A4.515,4.515,0,0,1,115.783,375Z" transform="translate(221.59 -224.76)" fill="#fff"/>
      <path id="Path_6374" data-name="Path 6374" d="M415.455,353.347v-.458l.046-1.35c.038-1.2.092-2.967.168-5.27.13-4.629.32-11.393.564-20s.526-19.065.854-31.038c.084-3,.16-6.1.252-9.266a31.444,31.444,0,0,0-.214-4.843l-.343-2.456-.5-2.463a49.872,49.872,0,0,0-3.394-9.769,49.2,49.2,0,0,0-5.567-9.258h0l-37.7-23.748-10.181-6.406A79.983,79.983,0,0,0,348.666,221a110.727,110.727,0,0,0-11.759-4.736c-2-.7-4.049-1.274-6.1-1.884s-4.141-1.113-6.261-1.525a142.806,142.806,0,0,0-24.289-3.05,230.183,230.183,0,0,0-23.527.076h-.221l.053.221,10.128,45.307h0a50.028,50.028,0,0,1,4.576,9.738,26.584,26.584,0,0,1,1.525,10.067c-.259,3.348-.351,6.627-.435,9.807s-.122,6.261-.183,9.258c-.175,11.973-.221,22.413-.252,31.015s0,15.367,0,19.988v0c0-4.621.069-11.386.122-19.98s.13-19.065.336-31.023q.092-4.484.2-9.25c.092-3.18.183-6.444.45-9.792a26.859,26.859,0,0,0-1.525-10.2,49.63,49.63,0,0,0-4.576-9.815v.053c-3.1-13.948-6.5-29.17-10.089-45.314l-.175.229a229.2,229.2,0,0,1,23.473-.061,141.237,141.237,0,0,1,24.228,3.05c2.112.42,4.172,1.007,6.238,1.525s4.088,1.182,6.1,1.876a110.566,110.566,0,0,1,11.759,4.743,79.511,79.511,0,0,1,10.722,5.979l10.189,6.406,37.7,23.694v-.038a48.527,48.527,0,0,1,5.552,9.2,49.079,49.079,0,0,1,3.386,9.7c1.716,6.536.854,12.964.839,18.951l-.763,31.038c-.206,8.6-.366,15.374-.473,20-.053,2.288-.084,4.072-.114,5.277v1.35A4.153,4.153,0,0,0,415.455,353.347Z" transform="translate(-80.37 -202.156)" fill="#263238"/>
      <path id="Path_6375" data-name="Path 6375" d="M564.845,211.236h-.359l-1.045-.038-4.049-.1-15.016-.29-50.622-.869h-.1l-.061.076L486.5,218.7c-7.184,8.823-14.032,17.212-20.255,24.838l-2.288,2.822a16.728,16.728,0,0,0-1.9,3.05,15.855,15.855,0,0,0-.282,12.873l2.288,5.338,7,16.2,1.922,4.393.511,1.144c.114.252.183.381.183.381s-.046-.137-.145-.4-.275-.664-.473-1.159c-.435-1.022-1.052-2.517-1.853-4.423l-6.863-16.244c-1.312-3.447-3.622-7.077-3.462-11.5a15.573,15.573,0,0,1,1.525-6.49,16.209,16.209,0,0,1,1.861-2.967l2.288-2.822,20.278-24.815,7.085-8.686-.153.076,50.63.763,15.016.175H564.5Z" transform="translate(-368.212 -202.25)" fill="#263238"/>
      <path id="Path_6376" data-name="Path 6376" d="M403.442,297.126a2.942,2.942,0,0,1-.6-.092,4.24,4.24,0,0,1-1.6-.641,4.05,4.05,0,0,1-1.632-2.12,4.575,4.575,0,0,1-.214-1.678,4.178,4.178,0,0,1,.473-1.815,4.049,4.049,0,0,1,3.516-2.143H420.3a4.022,4.022,0,0,1,3.966,3.546,4.576,4.576,0,0,1-.488,2.692,4.057,4.057,0,0,1-1.952,1.731,6.2,6.2,0,0,1-2.539.313h-6.978l-6.49.061-1.762.038a3.275,3.275,0,0,0-.618.046,5.618,5.618,0,0,0,.618.038h1.762l6.49.061h8.3a4.233,4.233,0,0,0,1.357-.313,4.385,4.385,0,0,0,2.143-1.884,4.812,4.812,0,0,0,.542-2.921,4.385,4.385,0,0,0-4.347-3.9h-16.93a4.324,4.324,0,0,0-3.752,2.341,4.431,4.431,0,0,0-.48,1.937,4.842,4.842,0,0,0,.252,1.754,4.232,4.232,0,0,0,1.762,2.181,3.912,3.912,0,0,0,1.67.587,2.705,2.705,0,0,0,.618.175Z" transform="translate(-181.223 -220.817)" fill="#263238"/>
      <path id="Path_6377" data-name="Path 6377" d="M551.442,297.126a2.942,2.942,0,0,1-.6-.092,4.239,4.239,0,0,1-1.6-.641,4.049,4.049,0,0,1-1.632-2.12,4.575,4.575,0,0,1-.214-1.678,4.179,4.179,0,0,1,.473-1.815,4.05,4.05,0,0,1,3.516-2.143H568.3a4.022,4.022,0,0,1,3.966,3.546,4.576,4.576,0,0,1-.488,2.692,4.057,4.057,0,0,1-1.952,1.731,6.2,6.2,0,0,1-2.54.313h-6.978l-6.49.061-1.762.038a3.275,3.275,0,0,0-.618.046,5.617,5.617,0,0,0,.618.038h1.762l6.49.061h8.3a4.233,4.233,0,0,0,1.357-.313,4.385,4.385,0,0,0,2.143-1.884,4.812,4.812,0,0,0,.541-2.921,4.385,4.385,0,0,0-4.347-3.9h-16.93a4.324,4.324,0,0,0-3.752,2.341,4.428,4.428,0,0,0-.48,1.937,4.842,4.842,0,0,0,.252,1.754,4.232,4.232,0,0,0,1.762,2.181,3.912,3.912,0,0,0,1.67.587,2.708,2.708,0,0,0,.618.175Z" transform="translate(-442.09 -220.817)" fill="#263238"/>
      <path id="Path_6378" data-name="Path 6378" d="M667.238,275.78h22.573a8.335,8.335,0,0,1,7.374,4.446h0a8.343,8.343,0,0,1,.244,7.237l-8.846,20.11-22.6-.221S661.168,281.858,667.238,275.78Z" transform="translate(-656.789 -217.88)" fill="#b5b8b9"/>
      <path id="Path_6379" data-name="Path 6379" d="M512.8,257.012,396.33,254.862l-75.8-1.388-25-14.436a3.882,3.882,0,0,1-1.136-5.7l15.565-20.446a8.648,8.648,0,0,1,6.818-3.417l84.787-.686s31.923-1.861,57.081,12.2C485.1,235.834,512.8,257.012,512.8,257.012Z" transform="translate(-188.853 -201.957)" fill="#263238"/>
      <path id="Path_6380" data-name="Path 6380" d="M269.447,211.58s-5.842,2.662-2.044,5.125,62.809,39.656,62.809,39.656l13.567-6.139C319.749,236.853,295.483,223.85,269.447,211.58Z" transform="translate(1.129 -202.64)" fill="#455a64"/>
      <path id="Path_6381" data-name="Path 6381" d="M100.63,271.54l.366.091,1.075.236,4.141.854c3.6.717,8.816,1.724,15.252,2.837,12.964,2.227,30.9,4.82,50.859,6.543,5,.435,9.914.763,14.581,1.1s9.258.6,13.574.991a118.092,118.092,0,0,1,22.657,3.882,63.808,63.808,0,0,1,14.314,5.933c1.624.854,2.784,1.693,3.6,2.2l.93.587.328.191a3.688,3.688,0,0,0-.305-.221l-.908-.625c-.808-.526-1.952-1.388-3.569-2.288a62.22,62.22,0,0,0-14.276-6.1,115.344,115.344,0,0,0-22.7-3.973c-4.324-.412-8.869-.7-13.582-1.014s-9.586-.679-14.574-1.113c-19.95-1.723-37.909-4.271-50.851-6.429-6.475-1.075-11.691-2.036-15.3-2.707l-4.156-.763-1.083-.2Z" transform="translate(228.804 -216.873)" fill="#263238"/>
      <path id="Path_6382" data-name="Path 6382" d="M671.05,339.868c0,.114,7.763.2,17.334.2s17.342-.084,17.342-.2-7.763-.2-17.342-.2S671.05,339.762,671.05,339.868Z" transform="translate(-669.623 -233.047)" fill="#263238"/>
      <path id="Path_6383" data-name="Path 6383" d="M273.62,365.848c0,.114,43.82.2,97.866.2s97.873-.084,97.873-.2-43.812-.2-97.873-.2S273.62,365.742,273.62,365.848Z" transform="translate(-130.171 -239.214)" fill="#263238"/>
      <path id="Path_6384" data-name="Path 6384" d="M91.7,340.728c0,.114,6.2.2,13.841.2s13.841-.084,13.841-.2-6.2-.2-13.841-.2S91.7,340.622,91.7,340.728Z" transform="translate(358.539 -233.251)" fill="#263238"/>
      <path id="Path_6385" data-name="Path 6385" d="M686.861,229.21s5.2,5.819,3.157,10.089-23.176,19.233-23.176,19.233l-15.336,2.875Z" transform="translate(-639.486 -206.825)" fill="#455a64"/>
      <path id="Path_6386" data-name="Path 6386" d="M543.682,215.54l3.447,37.246-61.71-1.762L460.55,236.565l16.1-21.025Z" transform="translate(-350.496 -203.58)" fill="#455a64"/>
      <path id="Path_6387" data-name="Path 6387" d="M420.044,254.658s-37.231-26.89-51.919-32.236c-14.177-5.155-21.567-6.452-34.882-6.864-12.728-.366-20.484,0-20.484,0l9.838,37.864Z" transform="translate(-110.705 -203.546)" fill="#455a64"/>
      <path id="Path_6388" data-name="Path 6388" d="M336.8,263.083h0a6.535,6.535,0,0,0-3.325-5.689l-8.556-4.8a16.251,16.251,0,0,0-7.985-2.09h0a16.448,16.448,0,0,0-5.071.808,9.273,9.273,0,0,0-6.238,8.518h0a9.418,9.418,0,0,0,9.418,9.777H330.3a6.52,6.52,0,0,0,6.505-6.52Z" transform="translate(-22.018 -211.879)" fill="#818b94"/>
      <path id="Path_6389" data-name="Path 6389" d="M336.959,263.019a5.041,5.041,0,0,1-.1.824,6.476,6.476,0,0,1-.763,2.234,6.711,6.711,0,0,1-2.623,2.585,6.452,6.452,0,0,1-2.2.686,24.586,24.586,0,0,1-2.631.053l-13.048-.046a9.784,9.784,0,0,1-3.63-.595,9.273,9.273,0,0,1-5.4-5.338,9.493,9.493,0,0,1-.572-4.034,9.235,9.235,0,0,1,3.851-6.825,9.822,9.822,0,0,1,3.531-1.525,16.19,16.19,0,0,1,10.387,1c.984.442,1.884,1,2.776,1.479l2.547,1.418,4.385,2.425a6.566,6.566,0,0,1,2.623,2.585,6.688,6.688,0,0,1,.763,2.234c.076.534.069.824.092.824a4.112,4.112,0,0,0,0-.839,6.307,6.307,0,0,0-.7-2.288,6.589,6.589,0,0,0-2.646-2.7l-4.355-2.478-2.532-1.441c-.885-.488-1.784-1.052-2.791-1.525a16.4,16.4,0,0,0-10.608-1.068,10.1,10.1,0,0,0-3.668,1.525,9.609,9.609,0,0,0-4.027,7.115,9.816,9.816,0,0,0,.595,4.21,9.639,9.639,0,0,0,5.643,5.567,10.25,10.25,0,0,0,3.76.6l13.048-.038a25.167,25.167,0,0,0,2.661-.084,6.6,6.6,0,0,0,2.288-.763,6.757,6.757,0,0,0,2.654-2.7,6.415,6.415,0,0,0,.694-2.288,4.994,4.994,0,0,0-.008-.793Z" transform="translate(-22.175 -211.815)" fill="#263238"/>
      <path id="Path_6390" data-name="Path 6390" d="M527.288,376.31v-.526c0-.351-.061-.877-.107-1.525s-.122-1.525-.168-2.517-.076-2.151-.114-3.439,0-2.738,0-4.309a44.559,44.559,0,0,1,.328-5.117,66.025,66.025,0,0,1,2.2-12.263,55.412,55.412,0,0,1,2.433-6.863,44.674,44.674,0,0,1,3.676-6.924A47.122,47.122,0,0,1,547.466,320.4a56.432,56.432,0,0,1,17.1-8.434,71.7,71.7,0,0,1,20.331-2.707,66.978,66.978,0,0,1,20.285,2.951,57.1,57.1,0,0,1,9.029,3.729,51.79,51.79,0,0,1,7.84,5.125,65.017,65.017,0,0,1,12.08,12.385,47.671,47.671,0,0,1,4.011,6.742,65.5,65.5,0,0,1,2.776,6.7,80.007,80.007,0,0,1,4.408,21.353c.122,2.585.107,4.576.038,5.964-.038.671-.069,1.182-.084,1.525a4.606,4.606,0,0,0,0,.526,3.462,3.462,0,0,1,.061-.526c.061-.351.076-.877.13-1.525a58.9,58.9,0,0,0,0-5.971,78.628,78.628,0,0,0-4.294-21.483,69.12,69.12,0,0,0-2.761-6.741,49.675,49.675,0,0,0-4.027-6.8,65.647,65.647,0,0,0-12.118-12.476,52.481,52.481,0,0,0-7.885-5.171,57.468,57.468,0,0,0-9.09-3.76,66.912,66.912,0,0,0-20.408-2.982,71.8,71.8,0,0,0-20.445,2.73,56.707,56.707,0,0,0-17.2,8.511,52.282,52.282,0,0,0-6.742,5.918,41.227,41.227,0,0,0-5.239,6.642,45,45,0,0,0-3.683,6.986,54.265,54.265,0,0,0-2.417,6.863A65.2,65.2,0,0,0,527,358.793c-.206,1.83-.206,3.546-.29,5.125s0,3.05,0,4.316.114,2.448.16,3.447.145,1.83.206,2.517.107,1.182.137,1.525S527.288,376.31,527.288,376.31Z" transform="translate(-499.337 -225.722)" fill="#fff"/>
      <path id="Path_6391" data-name="Path 6391" d="M348.88,272.05h.694l1.99.046,7.313.13c6.177.114,14.7.343,24.129.6s17.959.435,24.137.48h9.822a.489.489,0,0,0,.183,0,.573.573,0,0,0-.183,0h-.511l-1.99-.046-7.313-.13c-6.177-.114-14.711-.343-24.137-.595s-17.96-.442-24.137-.488h-10Z" transform="translate(-135.355 -216.995)" fill="#fff"/>
      <path id="Path_6392" data-name="Path 6392" d="M407.62,287.011a112.626,112.626,0,0,0,13.361,0,112.626,112.626,0,0,0-13.361,0Z" transform="translate(-183.983 -220.493)" fill="#fff"/>
      <path id="Path_6393" data-name="Path 6393" d="M379.58,233.569c-.038.1,8.251,3.554,18.524,7.71s18.631,7.451,18.676,7.344-8.251-3.554-18.524-7.71S379.626,233.47,379.58,233.569Z" transform="translate(-158.398 -207.859)" fill="#fff"/>
      <path id="Path_6394" data-name="Path 6394" d="M359.86,237c-.046.107,7.855,3.584,17.639,7.771s17.746,7.5,17.792,7.4-7.855-3.577-17.639-7.771S359.906,236.885,359.86,237Z" transform="translate(-121.871 -208.673)" fill="#fff"/>
      <path id="Path_6395" data-name="Path 6395" d="M497.3,231.679c-.046.1,8.251,3.554,18.524,7.71s18.631,7.443,18.676,7.344-8.251-3.554-18.531-7.71S497.361,231.572,497.3,231.679Z" transform="translate(-365.893 -207.41)" fill="#fff"/>
      <path id="Path_6396" data-name="Path 6396" d="M477.54,235.09c-.046.107,7.855,3.584,17.632,7.771s17.754,7.5,17.8,7.4-7.855-3.577-17.639-7.771S477.54,235.021,477.54,235.09Z" transform="translate(-329.295 -208.22)" fill="#fff"/>
      <path id="Path_6397" data-name="Path 6397" d="M451.59,271.978c0,.107,16.5.3,36.842.419s36.842.13,36.842,0-16.488-.3-36.842-.412S451.59,271.894,451.59,271.978Z" transform="translate(-321.808 -216.961)" fill="#fff"/>
      <path id="Path_6398" data-name="Path 6398" d="M545.06,286.21c0,.107,4.621.236,10.333.29s10.333,0,10.333-.1-4.621-.244-10.333-.3S545.06,286.1,545.06,286.21Z" transform="translate(-433.542 -220.325)" fill="#fff"/>
      <path id="Path_6399" data-name="Path 6399" d="M104.13,278.85a1.839,1.839,0,0,0,.45.091l1.289.168c.564.061,1.251.145,2.044.282s1.7.236,2.692.435c1.99.351,4.347.869,6.925,1.525a85.863,85.863,0,0,1,8.244,2.73c2.867,1.136,5.529,2.379,7.908,3.607a64.6,64.6,0,0,1,6.1,3.569c.862.526,1.609,1.06,2.288,1.525s1.235.846,1.693,1.182l1.06.763a2.364,2.364,0,0,0,.389.244,2.207,2.207,0,0,0-.336-.305l-1.022-.816c-.442-.351-.991-.763-1.655-1.243a23.771,23.771,0,0,0-2.288-1.525c-1.678-1.136-3.752-2.379-6.1-3.653a74.662,74.662,0,0,0-16.228-6.368c-2.593-.671-4.965-1.167-6.97-1.479-1-.183-1.907-.275-2.707-.381s-1.525-.175-2.051-.214l-1.3-.1a2.967,2.967,0,0,0-.419-.038Z" transform="translate(323.231 -218.609)" fill="#fff"/>
      <path id="Path_6400" data-name="Path 6400" d="M306.7,254.616a4.125,4.125,0,0,1,.763-.709,5.078,5.078,0,0,1,2.517-1.014,10.867,10.867,0,0,1,4.072.435,31.267,31.267,0,0,1,12.606,6.49c1.815,1.525,2.776,2.646,2.829,2.593a4.9,4.9,0,0,0-.641-.808,26.9,26.9,0,0,0-2-2,29.247,29.247,0,0,0-7.84-5,28.293,28.293,0,0,0-4.873-1.624,10.806,10.806,0,0,0-4.194-.366,4.9,4.9,0,0,0-2.578,1.182,3.3,3.3,0,0,0-.511.58C306.733,254.524,306.688,254.608,306.7,254.616Z" transform="translate(-15.529 -212.364)" fill="#fff"/>
      <path id="Path_6401" data-name="Path 6401" d="M552.5,224.273a12.2,12.2,0,0,0,3.249.336,20.59,20.59,0,0,0,3.813-.473,34.8,34.8,0,0,0,4.858-1.525c1.762-.663,3.638-1.525,5.666-2.372l3.165-1.274c1.091-.435,2.242-.808,3.4-1.235a132.9,132.9,0,0,1,15.542-4.232,178.835,178.835,0,0,1,29.04-3.6c1.876-.1,3.569-.1,5.064-.137h3.813l2.41.053h.846a.572.572,0,0,0-.214,0l-.625-.046-2.417-.13-3.813-.069c-1.525,0-3.188,0-5.064.092a168.233,168.233,0,0,0-29.117,3.508,127.405,127.405,0,0,0-15.565,4.24c-1.159.427-2.288.808-3.409,1.251l-3.165,1.3c-2.028.877-3.9,1.731-5.643,2.41a33.429,33.429,0,0,1-4.8,1.525,20.183,20.183,0,0,1-3.767.534,17.362,17.362,0,0,1-2.4-.084l-.618-.076Z" transform="translate(-506.856 -202.162)" fill="#263238"/>
    </g>
    <g id="freepik--Character--inject-2" transform="translate(411.19 65.185)">
      <path id="Path_6402" data-name="Path 6402" d="M106.089,217.869c3.05-16.686,5.1-19.248,6.825-24.991s4.461-9.472,7.87-10.791c2.288-.885,13.78-5.026,17.776-3.653A50.142,50.142,0,0,1,149.642,184a14.84,14.84,0,0,1,5.781,7.4l6.1,17.212-10.738,10.677L145.4,207.848l-5.842,13.727.862,13.841-33.5,9.014C103.9,239.55,104.358,227.333,106.089,217.869Z" transform="translate(-104.72 -147.385)" fill="#818b94"/>
      <g id="Group_630" data-name="Group 630" transform="translate(10.047 52.28)" opacity="0.2">
        <path id="Path_6403" data-name="Path 6403" d="M136.4,206.36c1.479,8.686,1.716,9.914,3.2,18.57.511,2.982,2,7.626,4.118,9.792,1.571,1.594,3.111,3.127,5.3,3.645a12.7,12.7,0,0,0,7.024-.305c1.906-.839,3.538-4.576,2.753-6.49-2.845.61-3.722,1.525-6.17,0a21.37,21.37,0,0,1-6.33-6.612c-4.888-9.456-6.238-9.792-9.914-18.6" transform="translate(-136.375 -206.36)"/>
      </g>
      <path id="Path_6404" data-name="Path 6404" d="M121.2,223.488a21.129,21.129,0,0,0,1.479-2.288l3.447-5.666,3.539-5.575a20.431,20.431,0,0,0,1.426-2.349,2.913,2.913,0,0,0-.48.564c-.29.374-.694.93-1.174,1.624-.976,1.388-2.288,3.333-3.645,5.521s-2.539,4.217-3.355,5.7c-.412.763-.763,1.342-.946,1.769A2.418,2.418,0,0,0,121.2,223.488Z" transform="translate(-86.856 -154.377)" fill="#263238"/>
      <path id="Path_6405" data-name="Path 6405" d="M138.42,247.712a3.813,3.813,0,0,0,.763.3,8.636,8.636,0,0,0,.953.259,11.017,11.017,0,0,0,1.281.267,20.263,20.263,0,0,0,3.386.313,23.8,23.8,0,0,0,4.156-.358,23.388,23.388,0,0,0,4.019-1.136,21.42,21.42,0,0,0,3.05-1.479c.427-.236.763-.5,1.1-.7a8.846,8.846,0,0,0,.8-.587,3.524,3.524,0,0,0,.633-.557c-.046-.061-.991.679-2.669,1.6a24.115,24.115,0,0,1-3.05,1.38,23.374,23.374,0,0,1-8.046,1.472,25.016,25.016,0,0,1-3.348-.221C139.587,247.995,138.443,247.636,138.42,247.712Z" transform="translate(-127.458 -163.022)" fill="#263238"/>
      <path id="Path_6406" data-name="Path 6406" d="M112.92,210.94c.061.3,3.661,7.466,3.661,7.466l16.991-8.953,1.731-7.321a4.576,4.576,0,0,1,5.506-3.371l5.01,2.051a1.342,1.342,0,0,1,.824.969c.069.366,0,.763-.663.679-1.243-.1-3.813-.374-3.813-.374l1.182,4.171a4.431,4.431,0,0,1-.336,3.272l-.763,1.441-1.655,2.677h.038s-16.518,16.968-25.792,18.074c-5.575.663-11.889-14.962-11.889-14.962Z" transform="translate(-88.512 -152.247)" fill="#b78876"/>
      <path id="Path_6407" data-name="Path 6407" d="M111.611,203.293a1.789,1.789,0,0,0-.412-.366,2.212,2.212,0,0,0-1.289-.4,1.342,1.342,0,0,0-1.136.763c-.16.343-.053.572,0,.557s0-.214.183-.473a1.319,1.319,0,0,1,1-.572,2.586,2.586,0,0,1,1.182.305C111.375,203.224,111.589,203.323,111.611,203.293Z" transform="translate(-57.836 -153.171)" fill="#aa6550"/>
      <path id="Path_6408" data-name="Path 6408" d="M108.267,206.541s.114-.137.275-.343a1.861,1.861,0,0,1,1.762-.694c.259,0,.419.091.435.061s-.122-.145-.4-.236a1.708,1.708,0,0,0-1.945.763C108.26,206.351,108.244,206.534,108.267,206.541Z" transform="translate(-56.635 -153.819)" fill="#aa6550"/>
      <path id="Path_6409" data-name="Path 6409" d="M158.129,185.1l4.576,21.8-12.2,7.329-4.682-13.4S147.788,184.554,158.129,185.1Z" transform="translate(-137.245 -149.029)" fill="#818b94"/>
      <path id="Path_6410" data-name="Path 6410" d="M115.36,185.6a1.963,1.963,0,0,0,.313.2c.214.114.519.282.923.488.808.412,2,.991,3.485,1.655a51.392,51.392,0,0,0,12.118,3.813,30.344,30.344,0,0,0,12.675-.427,21.535,21.535,0,0,0,3.615-1.3,7.344,7.344,0,0,0,.938-.473,2.163,2.163,0,0,0,.313-.191,12.79,12.79,0,0,0-1.312.526,26.535,26.535,0,0,1-3.645,1.174,31.45,31.45,0,0,1-12.537.305,55.548,55.548,0,0,1-12.08-3.683c-1.525-.625-2.692-1.167-3.523-1.525a10.525,10.525,0,0,0-1.281-.557Z" transform="translate(-101.05 -149.152)" fill="#ebebeb"/>
      <path id="Path_6411" data-name="Path 6411" d="M112.75,188.76a1.806,1.806,0,0,0,.343.244l1.007.648a18.424,18.424,0,0,0,1.647.961c.656.343,1.388.763,2.25,1.144l1.327.61c.465.214.969.389,1.479.595,1.014.419,2.143.763,3.317,1.144a45.977,45.977,0,0,0,15.9,1.884c1.235-.1,2.41-.168,3.493-.343.549-.084,1.075-.137,1.579-.229l1.441-.29c.915-.16,1.731-.4,2.448-.587A18.378,18.378,0,0,0,150.8,194l1.136-.4a1.617,1.617,0,0,0,.389-.16,1.442,1.442,0,0,0-.412.084l-1.159.32c-.5.153-1.106.328-1.83.48s-1.525.389-2.456.526l-1.434.259c-.5.092-1.022.137-1.525.206-1.083.16-2.288.221-3.47.305a47.365,47.365,0,0,1-15.786-1.868c-1.167-.366-2.288-.694-3.3-1.106-.5-.2-1.007-.366-1.472-.564l-1.335-.587c-.862-.351-1.594-.763-2.288-1.083a18.28,18.28,0,0,1-1.67-.892l-1.052-.58a1.608,1.608,0,0,0-.389-.183Z" transform="translate(-101.65 -149.902)" fill="#ebebeb"/>
      <path id="Path_6412" data-name="Path 6412" d="M144.81,214.093a7.941,7.941,0,0,0,.991-.5l2.684-1.525,9.151-5.285.114-.069v-.13c-.328-1.624-.679-3.378-1.045-5.178-.549-2.715-1.083-5.293-1.525-7.626-.252-1.174-.458-2.288-.686-3.348a12.087,12.087,0,0,0-.976-2.829,5.727,5.727,0,0,0-3.157-2.89,3.5,3.5,0,0,0-1.167-.191,1.129,1.129,0,0,0-.4.046,5.056,5.056,0,0,1,1.525.29,5.689,5.689,0,0,1,2.959,2.867,12.294,12.294,0,0,1,.908,2.784c.206,1.045.419,2.166.648,3.333.473,2.364.991,4.942,1.525,7.626.366,1.807.724,3.554,1.052,5.178l.092-.2-9.1,5.407-2.631,1.6a6.908,6.908,0,0,0-.961.641Z" transform="translate(-131.522 -148.895)" fill="#263238"/>
      <path id="Path_6413" data-name="Path 6413" d="M162.119,204.88a7.938,7.938,0,0,0,.061,2.036,30.5,30.5,0,0,0,.869,4.827,31.813,31.813,0,0,0,1.617,4.637,7.885,7.885,0,0,0,.953,1.8,14.537,14.537,0,0,0-.694-1.907,45.358,45.358,0,0,1-2.471-9.4A15.956,15.956,0,0,0,162.119,204.88Z" transform="translate(-152.559 -153.729)" fill="#263238"/>
      <path id="Path_6414" data-name="Path 6414" d="M75.131,363.91l.137,11.637s11.881,3.775,12.11,5.925l-22.558,1.068-.961-18.127Z" transform="translate(0.584 -191.481)" fill="#455a64"/>
      <path id="Path_6415" data-name="Path 6415" d="M88.137,378.312a.923.923,0,0,0-.587,1.083.885.885,0,0,0,1.068.595.984.984,0,0,0,.618-1.152.923.923,0,0,0-1.182-.488" transform="translate(-19.346 -194.894)" fill="#e0e0e0"/>
      <path id="Path_6416" data-name="Path 6416" d="M63.814,387.663v-1.83l21.643-.343s1.03.389.946,1.106Z" transform="translate(1.592 -196.604)" fill="#e0e0e0"/>
      <path id="Path_6417" data-name="Path 6417" d="M81.285,378.973c0,.107-.549.183-1.068.564s-.763.854-.9.816,0-.679.679-1.129S81.308,378.866,81.285,378.973Z" transform="translate(-5.073 -195.036)" fill="#263238"/>
      <path id="Path_6418" data-name="Path 6418" d="M77.505,380.119c0,.107-.442.32-.763.8s-.435.984-.549.984-.206-.618.244-1.213S77.5,380.02,77.505,380.119Z" transform="translate(1.124 -195.32)" fill="#263238"/>
      <path id="Path_6419" data-name="Path 6419" d="M73.244,383.163c-.1,0-.282-.511,0-1.129s.763-.877.808-.763-.252.427-.45.938S73.366,383.148,73.244,383.163Z" transform="translate(6.864 -195.596)" fill="#263238"/>
      <path id="Path_6420" data-name="Path 6420" d="M82.026,375.412c-.046.107-.557,0-1.182.046s-1.091.3-1.152.206.381-.511,1.113-.587S82.071,375.328,82.026,375.412Z" transform="translate(-6.134 -194.129)" fill="#263238"/>
      <g id="Group_631" data-name="Group 631" transform="translate(64.574 174.732)" opacity="0.3">
        <path id="Path_6421" data-name="Path 6421" d="M91.015,366.93,91.045,369l-11.1.427-.1-1.868Z" transform="translate(-79.85 -366.93)"/>
      </g>
      <path id="Path_6422" data-name="Path 6422" d="M83.281,371.917a2.09,2.09,0,0,1-1.129.053,4.894,4.894,0,0,1-1.2-.313,4.343,4.343,0,0,1-.663-.313,1.361,1.361,0,0,1-.358-.244.48.48,0,0,1-.076-.587.618.618,0,0,1,.473-.275,1.525,1.525,0,0,1,.427.038,4.04,4.04,0,0,1,.709.206,4.172,4.172,0,0,1,1.075.633c.549.465.763.869.709.892s-.32-.3-.869-.671a4.692,4.692,0,0,0-1.037-.519,4.336,4.336,0,0,0-.656-.168c-.244-.053-.45-.046-.5.061s0,.061,0,.13a1.356,1.356,0,0,0,.259.183c.206.114.412.221.61.313a6.5,6.5,0,0,0,1.113.366A8.731,8.731,0,0,1,83.281,371.917Z" transform="translate(-7.466 -192.983)" fill="#263238"/>
      <path id="Path_6423" data-name="Path 6423" d="M78.594,371.532a1.8,1.8,0,0,1-.343-1.075,3.584,3.584,0,0,1,.092-1.243,3.546,3.546,0,0,1,.259-.7.93.93,0,0,1,.694-.6.511.511,0,0,1,.48.29,1.373,1.373,0,0,1,.137.412,2.554,2.554,0,0,1,0,.763,2.585,2.585,0,0,1-.427,1.19c-.412.61-.869.763-.877.724a4.54,4.54,0,0,0,.648-.862,2.585,2.585,0,0,0,.305-1.075,2.41,2.41,0,0,0-.053-.656c-.046-.236-.145-.427-.236-.4a.8.8,0,0,0-.374.389,3.576,3.576,0,0,0-.252.625,4.057,4.057,0,0,0-.168,1.136C78.541,371.105,78.678,371.509,78.594,371.532Z" transform="translate(-2.939 -192.43)" fill="#263238"/>
      <path id="Path_6424" data-name="Path 6424" d="M65.017,248.595s35.248-14.795,46.153-15.412c6.863-.4,12.019,4,11.088,11.073-.465,3.546-10.2,44.994-10.2,44.994l-14.84-6.772,7.138-28.667L75.374,267.889Z" transform="translate(-35.287 -160.442)" fill="#263238"/>
      <path id="Path_6425" data-name="Path 6425" d="M87.322,250.729a41.15,41.15,0,0,1-2.288,3.592c-1.235,1.99-2.059,3.706-2.2,3.653a16.163,16.163,0,0,1,4.484-7.245Z" transform="translate(-13.826 -164.612)" fill="#455a64"/>
      <path id="Path_6426" data-name="Path 6426" d="M86.679,252.887a39.288,39.288,0,0,1-3.813,2.8,40.567,40.567,0,0,1-3.813,2.784,14.039,14.039,0,0,1,3.531-3.211A15.836,15.836,0,0,1,86.679,252.887Z" transform="translate(-10.3 -165.123)" fill="#455a64"/>
      <path id="Path_6427" data-name="Path 6427" d="M76.31,262.292s4.431,5.712,8.656,7.275c5.338,1.96,44.582,20.484,44.582,20.484s7.123,52.918,6.558,50.706l16.434-.4-1.785-48.738c-.214-6.238-5.216-13.407-10.593-16.594L103.8,253.4Z" transform="translate(-74.072 -165.247)" fill="#263238"/>
      <path id="Path_6428" data-name="Path 6428" d="M120.345,301.345a2.577,2.577,0,0,1-.069-.671c0-.488-.061-1.121-.1-1.914a65.777,65.777,0,0,0-.656-7.008,24.06,24.06,0,0,0-3.569-9.639,18.417,18.417,0,0,0-4.225-4.362,50.745,50.745,0,0,0-5.575-3.531c-7.908-4.53-14.734-9.151-19.782-12.316-2.517-1.6-4.576-2.875-5.979-3.744l-1.632-1.007a3.506,3.506,0,0,1-.557-.381,3.324,3.324,0,0,1,.6.29c.389.206.961.511,1.685.923,1.457.816,3.531,2.051,6.1,3.607,5.1,3.1,11.965,7.664,19.828,12.2a50.548,50.548,0,0,1,5.628,3.577,18.654,18.654,0,0,1,4.316,4.5,24.137,24.137,0,0,1,3.516,9.876,54.907,54.907,0,0,1,.488,7.054v1.922A3.5,3.5,0,0,1,120.345,301.345Z" transform="translate(-43.349 -166.047)" fill="#455a64"/>
      <path id="Path_6429" data-name="Path 6429" d="M153,269.066a12.4,12.4,0,0,1,1.007-1.35,9.868,9.868,0,0,0,1.525-7.626,12.338,12.338,0,0,1-.4-1.64,3.676,3.676,0,0,1,.763,1.525,8.747,8.747,0,0,1,.168,4.164,8.632,8.632,0,0,1-1.769,3.767C153.6,268.783,153.031,269.111,153,269.066Z" transform="translate(-136.258 -166.446)" fill="#455a64"/>
      <path id="Path_6430" data-name="Path 6430" d="M132.231,340.952a1.03,1.03,0,0,1-.046-.267c0-.214-.061-.473-.1-.8-.084-.763-.191-1.769-.328-3.05-.267-2.715-.648-6.581-1.121-11.34-.221-2.395-.473-5.018-.763-7.832s-.557-5.826-.763-9a96.743,96.743,0,0,0-1.121-9.914,40.57,40.57,0,0,0-3.05-10.181,34.317,34.317,0,0,0-5.964-8.747,54.222,54.222,0,0,0-7.443-6.558,150.545,150.545,0,0,0-14.268-8.9c-4.171-2.395-7.5-4.438-9.7-5.979-1.113-.763-1.952-1.38-2.517-1.815l-.633-.5q-.214-.168-.206-.183a.969.969,0,0,1,.236.137l.663.458c.58.4,1.441,1,2.562,1.739,2.242,1.479,5.582,3.47,9.777,5.826a143.289,143.289,0,0,1,14.368,8.831,53.6,53.6,0,0,1,7.535,6.6,34.544,34.544,0,0,1,6.063,8.877,40.944,40.944,0,0,1,3.05,10.3c.572,3.432.862,6.764,1.1,9.914s.473,6.185.763,9,.473,5.437.679,7.84c.4,4.766.763,8.633.953,11.355q.153,1.968.229,3.05c0,.328.038.595.053.8A.853.853,0,0,1,132.231,340.952Z" transform="translate(-59.802 -165.838)" fill="#455a64"/>
      <path id="Path_6431" data-name="Path 6431" d="M106.748,142.026a6.429,6.429,0,0,1,7.344-3.958,7.625,7.625,0,0,0,2.044.442,14.59,14.59,0,0,0,2.486-.656,3.737,3.737,0,0,1,4.21,2.73,5.071,5.071,0,0,1,4.187.831,3.287,3.287,0,0,1,.984,3.95c-.3.557-.763,1-1.06,1.571-.45.938-.244,2.067-.557,3.05a4.118,4.118,0,0,1-3.554,2.547,12.1,12.1,0,0,1-4.576-.648" transform="translate(-73.037 -137.806)" fill="#263238"/>
      <path id="Path_6432" data-name="Path 6432" d="M127.49,173.876c.191-1.479.313-2.517.313-2.517s4.919,0,6.864-6.1A67.931,67.931,0,0,0,136.7,152.9a6.673,6.673,0,0,0-6.292-7.306l-13.056-.679-.282,2.021-3.439,25.105a6.97,6.97,0,0,0,6,7.855h0a6.986,6.986,0,0,0,7.855-6.025Z" transform="translate(-86.679 -139.495)" fill="#b78876"/>
      <path id="Path_6433" data-name="Path 6433" d="M117.607,159.832a.816.816,0,0,1-.9.686.763.763,0,0,1-.709-.854.8.8,0,0,1,.9-.686.763.763,0,0,1,.709.854Z" transform="translate(-69.407 -142.83)" fill="#263238"/>
      <path id="Path_6434" data-name="Path 6434" d="M118.728,158.27c-.114.084-.648-.458-1.525-.595s-1.525.2-1.64.076.092-.229.4-.381a2.181,2.181,0,0,1,1.335-.191,2.089,2.089,0,0,1,1.182.6C118.728,158.026,118.789,158.232,118.728,158.27Z" transform="translate(-70.192 -142.398)" fill="#263238"/>
      <path id="Path_6435" data-name="Path 6435" d="M128.334,158.012a.808.808,0,0,1-.9.679.763.763,0,0,1-.717-.846.816.816,0,0,1,.9-.686.763.763,0,0,1,.717.854Z" transform="translate(-88.309 -142.399)" fill="#263238"/>
      <path id="Path_6436" data-name="Path 6436" d="M129.872,156.712c-.114.092-.648-.458-1.525-.587s-1.525.191-1.64.069.092-.221.4-.381a2.288,2.288,0,0,1,1.335-.191,2.166,2.166,0,0,1,1.182.6C129.872,156.468,129.926,156.666,129.872,156.712Z" transform="translate(-89.831 -142.029)" fill="#263238"/>
      <path id="Path_6437" data-name="Path 6437" d="M120.845,163.854a5.391,5.391,0,0,1,1.441,0c.221,0,.435,0,.5-.145a1.121,1.121,0,0,0,0-.679c-.122-.564-.252-1.159-.389-1.777a30.39,30.39,0,0,1-.763-4.614,29.642,29.642,0,0,1,1.136,4.576c.122.625.244,1.22.351,1.792a1.243,1.243,0,0,1,0,.877.572.572,0,0,1-.412.267,1.524,1.524,0,0,1-.381,0,5.97,5.97,0,0,1-1.479-.3Z" transform="translate(-78.692 -142.277)" fill="#263238"/>
      <path id="Path_6438" data-name="Path 6438" d="M133.287,178.481a16.084,16.084,0,0,1-8.007-3.561s1.357,4.637,7.695,5.026Z" transform="translate(-92.164 -146.617)" fill="#aa6550"/>
      <path id="Path_6439" data-name="Path 6439" d="M124.481,166.35c.145,0,0,.946.686,1.739s1.708.847,1.7.976-.252.153-.679.092a2.288,2.288,0,0,1-1.418-.763,2.021,2.021,0,0,1-.519-1.449C124.275,166.548,124.42,166.335,124.481,166.35Z" transform="translate(-84.959 -144.582)" fill="#263238"/>
      <path id="Path_6440" data-name="Path 6440" d="M129.7,152.382c-.122.221-.969,0-2-.069s-1.891.107-1.99-.122.13-.305.5-.48a3.447,3.447,0,0,1,3.05.145C129.592,152.061,129.752,152.275,129.7,152.382Z" transform="translate(-88.895 -141.039)" fill="#263238"/>
      <path id="Path_6441" data-name="Path 6441" d="M118.315,154.918c-.183.168-.763-.13-1.457-.252s-1.342-.076-1.449-.305c-.046-.107.084-.29.374-.427a2.059,2.059,0,0,1,1.243-.137,2.028,2.028,0,0,1,1.1.58C118.346,154.621,118.4,154.835,118.315,154.918Z" transform="translate(-69.695 -141.593)" fill="#263238"/>
      <path id="Path_6442" data-name="Path 6442" d="M133.555,149.456a8.968,8.968,0,0,1-7.42-1.487c-2.6-1.739-5.758-2.829-6.543-2.356s-1.3,3.31-4.156,3.813c0,0-.5,5.491-2.662,5.018-1.525-.336-.641-6.391,0-9.845a3.05,3.05,0,0,1,2.852-2.448l4.019-.16,5.018,1.4,5.384,1.464,4.1,1.716Z" transform="translate(-82.845 -138.799)" fill="#263238"/>
      <path id="Path_6443" data-name="Path 6443" d="M143.425,155.244c-.076-.053-3.409-1.807-4.027,1.83s3.157,3.5,3.188,3.4S143.425,155.244,143.425,155.244Z" transform="translate(-113.016 -141.834)" fill="#b78876"/>
      <path id="Path_6444" data-name="Path 6444" d="M142.83,159.259a1.105,1.105,0,0,1-.191.069.648.648,0,0,1-.473-.069,1.609,1.609,0,0,1-.488-1.525,2.166,2.166,0,0,1,.328-.877.763.763,0,0,1,.564-.4.328.328,0,0,1,.343.236v.191c0,.015.084-.053.084-.206a.419.419,0,0,0-.107-.252.5.5,0,0,0-.336-.153.9.9,0,0,0-.763.45,2.143,2.143,0,0,0-.389.976,1.655,1.655,0,0,0,.656,1.731.694.694,0,0,0,.595,0C142.807,159.351,142.838,159.275,142.83,159.259Z" transform="translate(-114.137 -142.189)" fill="#aa6550"/>
      <path id="Path_6445" data-name="Path 6445" d="M128.334,139.687a3.853,3.853,0,0,1-.381.488,3.135,3.135,0,0,1-1.373.885,4.576,4.576,0,0,1-2.425.107,22.524,22.524,0,0,1-2.936-.93,8.031,8.031,0,0,0-3.111-.557,3.447,3.447,0,0,0-2.372,1.068,2.517,2.517,0,0,0-.724,1.586,1.045,1.045,0,0,0,.107.633,4.719,4.719,0,0,0,.046-.618,2.54,2.54,0,0,1,.763-1.411,3.211,3.211,0,0,1,2.181-.892,8.115,8.115,0,0,1,2.967.564,19.067,19.067,0,0,0,3,.915,4.682,4.682,0,0,0,2.585-.2,3.05,3.05,0,0,0,1.4-1.052A1.056,1.056,0,0,0,128.334,139.687Z" transform="translate(-79.37 -138.251)" fill="#455a64"/>
      <path id="Path_6446" data-name="Path 6446" d="M108.77,143.859a4.138,4.138,0,0,1,.564-.458,3.424,3.424,0,0,1,1.807-.5,5.925,5.925,0,0,1,2.776.679,28.77,28.77,0,0,0,3.31,1.525,8.229,8.229,0,0,0,6.513-.709,7.153,7.153,0,0,0,1.609-1.235,2.143,2.143,0,0,0,.458-.58,12.836,12.836,0,0,1-2.2,1.563,8.274,8.274,0,0,1-6.261.587,35.494,35.494,0,0,1-3.279-1.525,5.872,5.872,0,0,0-2.944-.625,3.318,3.318,0,0,0-1.907.694,1.4,1.4,0,0,0-.45.587Z" transform="translate(-72.092 -138.937)" fill="#455a64"/>
      <path id="Path_6447" data-name="Path 6447" d="M87.735,220.822l17.708-15.092,5.842,1.319s-6.154,12.8-10.608,17.487a10.466,10.466,0,0,1-11.66,3.34C81.756,225.329,87.735,220.822,87.735,220.822Z" transform="translate(-39.763 -153.931)" fill="#b78876"/>
      <path id="Path_6448" data-name="Path 6448" d="M89.218,183.93h7.527a1.914,1.914,0,0,1,1.746,2.4l-7.573,14.741a1.708,1.708,0,0,1-1.525.93H80.242a1.312,1.312,0,0,1-1-1.945l7.3-14.436A3.05,3.05,0,0,1,89.218,183.93Z" transform="translate(-22.196 -148.756)" fill="#455a64"/>
      <path id="Path_6449" data-name="Path 6449" d="M89.195,185.1h7.527a1.258,1.258,0,0,1,1.129,1.83l-7.39,14.421a1.723,1.723,0,0,1-1.525.93H79.86a.763.763,0,0,1-.663-1.075L86.5,186.778A3,3,0,0,1,89.195,185.1Z" transform="translate(-21.67 -149.033)" fill="#263238"/>
      <path id="Path_6450" data-name="Path 6450" d="M87.474,193l4.576,1.83.976,3.691-2.2,5.491-8.061,1.19,2.364-2.417-.3-2.112s-2.288-.709-2.288-1.052.282-1.525.625-1.563a17.385,17.385,0,0,1,2.646.831s-2.8-2.219-2.723-2.578.381-1.266.938-1.373,5.087,2.036,5.087,2.036l.763,1.67.641-2.677S86.483,194.838,87.474,193Z" transform="translate(-19.308 -150.909)" fill="#b78876"/>
      <path id="Path_6451" data-name="Path 6451" d="M91.367,203.48a1.078,1.078,0,0,0,.16-.458,2.494,2.494,0,0,0-.763-2.12c-.229-.2-.4-.267-.419-.244a4.98,4.98,0,0,1,.847,1.3,5.056,5.056,0,0,1,.175,1.525Z" transform="translate(-23.781 -152.726)" fill="#aa6550"/>
      <path id="Path_6452" data-name="Path 6452" d="M93.287,201.757a8.526,8.526,0,0,1-.183-1.2,5.209,5.209,0,0,0-.229-1.327,1.815,1.815,0,0,0-1.174-1.182c-1.091-.4-2.082-.717-2.8-.953a6.774,6.774,0,0,0-1.182-.328,5.672,5.672,0,0,0,1.121.488c.709.275,1.7.625,2.776,1.014a1.815,1.815,0,0,1,.671.412,1.769,1.769,0,0,1,.381.625,5.438,5.438,0,0,1,.267,1.274,2.433,2.433,0,0,0,.351,1.174Z" transform="translate(-23.52 -151.804)" fill="#aa6550"/>
      <path id="Path_6453" data-name="Path 6453" d="M86.59,201.679a1.93,1.93,0,0,0,0-.908c-.084-.488-.2-.869-.267-.862a1.945,1.945,0,0,0,0,.908C86.407,201.306,86.521,201.687,86.59,201.679Z" transform="translate(-15.77 -152.549)" fill="#aa6550"/>
      <path id="Path_6454" data-name="Path 6454" d="M88.1,188.451a.953.953,0,1,1-.279-.682.961.961,0,0,1,.279.682Z" transform="translate(-17.16 -149.601)" fill="#fafafa"/>
    </g>
  </g>
</svg>
