<svg xmlns="http://www.w3.org/2000/svg" xmlns:xlink="http://www.w3.org/1999/xlink" width="30.092" height="30.092" viewBox="0 0 30.092 30.092">
  <defs>
    <linearGradient id="linear-gradient" x1="0.241" y1="0.165" x2="0.761" y2="0.837" gradientUnits="objectBoundingBox">
      <stop offset="0.011" stop-color="#81899e"/>
      <stop offset="0.823" stop-color="#5e6882"/>
    </linearGradient>
    <linearGradient id="linear-gradient-2" x1="0.818" y1="0.818" x2="0.302" y2="0.302" xlink:href="#linear-gradient"/>
    <linearGradient id="linear-gradient-3" x1="0.48" y1="0.453" x2="0.851" y2="0.77" gradientUnits="objectBoundingBox">
      <stop offset="0"/>
      <stop offset="0.823" stop-opacity="0"/>
    </linearGradient>
    <linearGradient id="linear-gradient-4" x1="0.569" y1="-0.063" x2="0.448" y2="0.927" gradientUnits="objectBoundingBox">
      <stop offset="0.011" stop-color="#f7f9ff"/>
      <stop offset="0.823" stop-color="#cbd7ff"/>
    </linearGradient>
  </defs>
  <g id="Group_647" data-name="Group 647" transform="translate(-133.049 -427.062)">
    <circle id="Ellipse_58" data-name="Ellipse 58" cx="15.046" cy="15.046" r="15.046" transform="translate(133.049 427.062)" fill="url(#linear-gradient)"/>
    <circle id="Ellipse_59" data-name="Ellipse 59" cx="12.455" cy="12.455" r="12.455" transform="translate(135.64 429.654)" fill="url(#linear-gradient-2)"/>
    <path id="Path_6463" data-name="Path 6463" d="M157.264,441.407l8.112,4.784L163.8,453.78s-1.021,2.4-1.153,2.5-4.744.757-4.744.757h-2.043l-7.6-5.717s2.395-2.141,2.494-2.1a20.263,20.263,0,0,0,2.947.673,8.272,8.272,0,0,0,1.168-.634,21.725,21.725,0,0,0,1.6-2.025c.2-.362.354-1.752.453-1.753.834-.008,1.242-1.632,1.242-1.731s-1.816-1.9-1.816-1.9Z" transform="translate(-4.407 -4.156)" opacity="0.17" fill="url(#linear-gradient-3)"/>
    <path id="Path_6464" data-name="Path 6464" d="M156.321,440.221a1.208,1.208,0,0,0-.86-.357h-4.632a1.208,1.208,0,0,0-.86.357l-6.147,6.148a1.215,1.215,0,0,0,0,1.72l4.632,4.632a1.217,1.217,0,0,0,1.72,0l6.147-6.148a1.208,1.208,0,0,0,.357-.86v-4.632a1.208,1.208,0,0,0-.356-.86Zm-6.25,2.688a1.216,1.216,0,1,1-1.216,1.216A1.217,1.217,0,0,1,150.071,442.909Zm0,7.123a1.216,1.216,0,1,1,1.216-1.217A1.217,1.217,0,0,1,150.071,450.032Zm2.487-3.175h-4.975a.387.387,0,0,1,0-.774h4.975a.387.387,0,0,1,0,.774Zm1.658-4.146a.387.387,0,1,1,.387-.387A.387.387,0,0,1,154.217,442.711Z" transform="translate(-3.018 -3.709)" fill="url(#linear-gradient-4)"/>
  </g>
</svg>
