<?xml version="1.0" encoding="utf-8"?>
<!-- Generator: Adobe Illustrator 25.0.0, SVG Export Plug-In . SVG Version: 6.00 Build 0)  -->
<svg version="1.1" id="Layer_1" xmlns="http://www.w3.org/2000/svg" xmlns:xlink="http://www.w3.org/1999/xlink" x="0px" y="0px" viewBox="0 0 76 79" style="enable-background:new 0 0 75.57 78.64;" xml:space="preserve" width="38px" height="39px" preserveAspectRatio="none">
<style type="text/css">
	.st0{fill:#F7F8F8;}
	.st1{fill:url(#SVGID_1_);}
</style>
<g>
	<g>
		<path class="st0" d="M70.46,35.71C68.21,20.45,55.06,8.74,39.18,8.74c-17.46,0-31.63,14.15-31.63,31.63
			c0,6.14,1.76,11.88,4.79,16.74c0.87,1.38,1.84,2.7,2.9,3.93l6.64-7.93c-0.8-1.08-1.49-2.24-2.08-3.46
			c-1.34-2.81-2.11-5.95-2.11-9.28c0-11.87,9.62-21.48,21.48-21.48c10.26,0,18.85,7.19,20.97,16.82c0.33,1.5,0.51,3.06,0.51,4.66
			c0,1.19-0.09,2.36-0.28,3.49c-0.33,2.04-0.96,3.98-1.82,5.78c-0.57,1.17-1.23,2.28-1.99,3.31c-0.03,0.05-0.07,0.1-0.1,0.15
			c-0.89,1.21-1.9,2.31-3.02,3.31c-0.27,0.24-0.55,0.46-0.82,0.69c-0.09,0.07-0.19,0.15-0.28,0.22c-0.09,0.07-0.18,0.14-0.26,0.2
			c-0.04,0.03-0.07,0.05-0.12,0.09c-1.25,0.93-2.61,1.73-4.06,2.38c-0.83,0.37-1.68,0.68-2.56,0.95c-1.95,0.58-4.03,0.9-6.17,0.9
			c-0.01,0-0.01,0-0.01,0c-2.14,0-4.2-0.31-6.15-0.9c-0.88-0.26-1.74-0.58-2.57-0.95l-6.03,7.2c-0.22,0.26-0.46,0.52-0.7,0.75
			c1.45,0.82,2.96,1.53,4.54,2.1c1.25,0.46,2.54,0.84,3.87,1.14c2.27,0.52,4.63,0.79,7.06,0.79c3.84,0,7.52-0.68,10.92-1.94
			c1.57-0.58,3.09-1.29,4.53-2.11c1.65-0.91,3.22-1.99,4.68-3.19c0.01-0.01,0.03-0.02,0.03-0.03c0.33-0.28,0.66-0.56,0.98-0.85
			c0.11-0.09,0.21-0.19,0.31-0.28c0.43-0.39,0.84-0.79,1.24-1.21c0.42-0.43,0.83-0.88,1.23-1.34c1.06-1.23,2.04-2.54,2.91-3.93
			c0.64-1.02,1.23-2.09,1.75-3.19c0.09-0.2,0.18-0.39,0.27-0.59c0.33-0.72,0.62-1.44,0.88-2.19c1.22-3.36,1.89-6.98,1.89-10.76
			C70.81,38.78,70.69,37.23,70.46,35.71z"/>
	</g>
	<g>
		<linearGradient id="SVGID_1_" gradientUnits="userSpaceOnUse" x1="58.6531" y1="57.8771" x2="62.4622" y2="41.1404">
			<stop  offset="7.973865e-08" style="stop-color:#C8C8C8"/>
			<stop  offset="1" style="stop-color:#F7F8F8"/>
		</linearGradient>
		<path class="st1" d="M70.81,40.37c0,3.78-0.66,7.4-1.89,10.76c-0.26,0.75-0.56,1.47-0.88,2.19c-0.09,0.2-0.18,0.39-0.27,0.59
			c-0.52,1.11-1.11,2.17-1.75,3.19c-0.87,1.39-1.84,2.71-2.91,3.93c-0.4,0.45-0.81,0.9-1.23,1.34c-0.4,0.41-0.81,0.81-1.24,1.21
			h-8.67V47.74l4.5,5.36c0.03-0.05,0.07-0.09,0.1-0.15c0.76-1.03,1.42-2.14,1.99-3.31c0.86-1.8,1.49-3.74,1.82-5.78
			c0.19-1.13,0.28-2.31,0.28-3.49c0-1.6-0.18-3.16-0.51-4.66h10.31C70.69,37.23,70.81,38.78,70.81,40.37z"/>
	</g>
	<g>
		<path class="st0" d="M67.77,53.91c-0.52,1.11-1.11,2.17-1.75,3.19c-0.87,1.39-1.84,2.71-2.91,3.93c-0.4,0.45-0.81,0.9-1.23,1.34
			c-0.4,0.41-0.81,0.81-1.24,1.21c-0.42,0.39-0.85,0.77-1.3,1.14c-0.01,0.01-0.03,0.01-0.03,0.03c-1.46,1.2-3.02,2.28-4.68,3.19
			c-0.24-0.24-0.47-0.48-0.68-0.74l-6.04-7.2l-8.73-10.44l-8.73,10.44c-1.49-0.67-2.89-1.5-4.18-2.47
			c-0.18-0.14-0.36-0.28-0.53-0.42c-0.28-0.23-0.56-0.45-0.82-0.68c-1.13-1-2.14-2.11-3.02-3.32l17.29-20.64l12.8,15.28l4.5,5.36
			l0.71,0.84l0.03,0.05l0.49,0.58l0.01,0.01c1.19,1.26,2.88,2.05,4.75,2.05C64.64,56.62,66.58,55.55,67.77,53.91z"/>
	</g>
</g>
</svg>
