<svg xmlns="http://www.w3.org/2000/svg" xmlns:xlink="http://www.w3.org/1999/xlink" width="31.752" height="31.752" viewBox="0 0 31.752 31.752">
  <defs>
    <linearGradient id="linear-gradient" x1="0.241" y1="0.165" x2="0.761" y2="0.837" gradientUnits="objectBoundingBox">
      <stop offset="0.011" stop-color="#81899e"/>
      <stop offset="0.823" stop-color="#5e6882"/>
    </linearGradient>
    <linearGradient id="linear-gradient-2" x1="0.818" y1="0.818" x2="0.302" y2="0.302" xlink:href="#linear-gradient"/>
    <linearGradient id="linear-gradient-3" x1="0.48" y1="0.453" x2="0.851" y2="0.77" gradientUnits="objectBoundingBox">
      <stop offset="0"/>
      <stop offset="0.823" stop-opacity="0"/>
    </linearGradient>
    <linearGradient id="linear-gradient-4" x1="0.492" y1="0.05" x2="0.517" y2="0.955" gradientUnits="objectBoundingBox">
      <stop offset="0.011" stop-color="#f7f9ff"/>
      <stop offset="0.823" stop-color="#cbd7ff"/>
    </linearGradient>
  </defs>
  <g id="Group_638" data-name="Group 638" transform="translate(-188.706 -368.489)">
    <circle id="Ellipse_54" data-name="Ellipse 54" cx="15.876" cy="15.876" r="15.876" transform="translate(188.706 368.489)" fill="url(#linear-gradient)"/>
    <circle id="Ellipse_55" data-name="Ellipse 55" cx="13.283" cy="13.283" r="13.283" transform="translate(191.299 371.082)" fill="url(#linear-gradient-2)"/>
    <path id="Path_6457" data-name="Path 6457" d="M212.928,382.833l8.118,4.789-1.575,7.595s-1.022,2.408-1.154,2.506-4.748.758-4.748.758h-2.044l-7.611-5.721s2.4-2.143,2.5-2.1a20.3,20.3,0,0,0,2.949.673,8.216,8.216,0,0,0,1.17-.635,21.742,21.742,0,0,0,1.6-2.027c.2-.363.355-1.754.454-1.754.834-.008,1.243-1.633,1.243-1.732s-1.818-1.9-1.818-1.9Z" transform="translate(-2.763 -2.513)" opacity="0.17" fill="url(#linear-gradient-3)"/>
    <g id="Group_637" data-name="Group 637" transform="translate(197.012 378.676)">
      <g id="Group_636" data-name="Group 636">
        <path id="Path_6458" data-name="Path 6458" d="M215.155,385.191a.412.412,0,0,0-.318-.152h-1.565a5.343,5.343,0,0,0-1.461-2.393c-1.978-1.3-7.223-1.3-9.2,0a5.362,5.362,0,0,0-1.461,2.393h-1.565a.412.412,0,0,0-.4.5l.232,1.122a.412.412,0,0,0,.4.328h.463a2.776,2.776,0,0,0-.667,1.816,2.722,2.722,0,0,0,.86,2.044c.006.005.012.009.018.014v1.571a.618.618,0,0,0,.618.618h1.443a.618.618,0,0,0,.617-.618V391.8h8.084v.631a.618.618,0,0,0,.618.618h1.443a.619.619,0,0,0,.618-.618v-1.54a2.824,2.824,0,0,0,.18-3.905h.495a.409.409,0,0,0,.4-.328l.232-1.122A.414.414,0,0,0,215.155,385.191Zm-11.867-1.513c1.577-1.038,6.268-1.038,7.844,0a5.087,5.087,0,0,1,1.061,2.007h-9.965A5.09,5.09,0,0,1,203.288,383.678Zm-1.847,5.279a1.215,1.215,0,1,1,1.215,1.215A1.215,1.215,0,0,1,201.441,388.956Zm10.339,1.215A1.214,1.214,0,1,1,213,388.956,1.215,1.215,0,0,1,211.78,390.171Z" transform="translate(-199.173 -381.671)" fill="url(#linear-gradient-4)"/>
      </g>
    </g>
  </g>
</svg>
