<svg xmlns="http://www.w3.org/2000/svg" xmlns:xlink="http://www.w3.org/1999/xlink" width="32.971" height="32.971" viewBox="0 0 32.971 32.971">
  <defs>
    <linearGradient id="linear-gradient" x1="0.241" y1="0.165" x2="0.761" y2="0.837" gradientUnits="objectBoundingBox">
      <stop offset="0.011" stop-color="#81899e"/>
      <stop offset="0.823" stop-color="#5e6882"/>
    </linearGradient>
    <linearGradient id="linear-gradient-2" x1="0.818" y1="0.818" x2="0.302" y2="0.302" xlink:href="#linear-gradient"/>
    <linearGradient id="linear-gradient-3" x1="0.38" y1="0.518" x2="0.812" y2="0.82" gradientUnits="objectBoundingBox">
      <stop offset="0"/>
      <stop offset="0.823" stop-opacity="0"/>
    </linearGradient>
    <linearGradient id="linear-gradient-4" x1="-29.656" y1="27.167" x2="-29.637" y2="27.205" gradientUnits="objectBoundingBox">
      <stop offset="0" stop-color="#c8c8c8"/>
      <stop offset="1" stop-color="#f7f7f7"/>
    </linearGradient>
  </defs>
  <g id="Group_634" data-name="Group 634" transform="translate(-169.812 -318.499)">
    <circle id="Ellipse_50" data-name="Ellipse 50" cx="16.486" cy="16.486" r="16.486" transform="translate(169.812 318.499)" fill="url(#linear-gradient)"/>
    <circle id="Ellipse_51" data-name="Ellipse 51" cx="13.647" cy="13.647" r="13.647" transform="translate(172.651 321.339)" fill="url(#linear-gradient-2)"/>
    <path id="Path_6455" data-name="Path 6455" d="M193.883,329.691l10.215,7.7-1.723,8.315s-1.119,2.635-1.264,2.744-5.2.83-5.2.83h-2.238l-7.207-3.7s4.03-.432,4.138-.387a20.384,20.384,0,0,0,2.744-.678c.181-.108,1.588-1.3,1.8-1.516a23.956,23.956,0,0,0,1.227-2.2,17.548,17.548,0,0,0,.686-2.6c0-.109.108-2.275.108-2.383s-2.058-3.465-2.058-3.465Z" transform="translate(-3.694 -2.482)" opacity="0.17" fill="url(#linear-gradient-3)"/>
    <g id="Group_28" data-name="Group 28" transform="translate(177.742 326.336)">
      <g id="Group_27" data-name="Group 27">
        <g id="Group_26" data-name="Group 26">
          <g id="Group_23" data-name="Group 23">
            <path id="Path_9" data-name="Path 9" d="M197.433,336.053a8.762,8.762,0,1,0-15.292,7.013l1.84-2.195a5.95,5.95,0,1,1,10.738-3.527,5.671,5.671,0,0,1-.08.967,5.873,5.873,0,0,1-1.053,2.521.3.3,0,0,1-.029.04,6,6,0,0,1-.836.918c-.075.066-.153.127-.226.191l-.078.06-.073.056-.032.024a6.106,6.106,0,0,1-1.124.659,5.6,5.6,0,0,1-.711.263,5.963,5.963,0,0,1-1.708.247h0a5.922,5.922,0,0,1-1.7-.247,5.656,5.656,0,0,1-.711-.263l-1.669,2c-.062.073-.127.142-.195.209a8.387,8.387,0,0,0,2.326.9,8.816,8.816,0,0,0,4.983-.317,8.556,8.556,0,0,0,1.253-.584,8.409,8.409,0,0,0,1.3-.883.011.011,0,0,1,.009-.006c.092-.078.183-.156.271-.237.03-.026.058-.051.086-.079.118-.111.233-.22.345-.334s.228-.244.34-.37a8.817,8.817,0,0,0,.806-1.089,8.362,8.362,0,0,0,.486-.886c.026-.054.051-.11.075-.163.09-.2.172-.4.244-.608a8.708,8.708,0,0,0,.521-2.981A8.46,8.46,0,0,0,197.433,336.053Z" transform="translate(-180.002 -328.569)" fill="#f7f7f7"/>
          </g>
          <g id="Group_24" data-name="Group 24" transform="translate(12.311 7.485)">
            <path id="Path_10" data-name="Path 10" d="M201.037,339.477a8.734,8.734,0,0,1-.521,2.981c-.072.206-.156.407-.244.607-.024.054-.049.11-.075.163a8.35,8.35,0,0,1-.486.885,8.823,8.823,0,0,1-.806,1.09c-.11.124-.223.249-.34.37s-.226.226-.345.334h-2.4v-4.388l1.245,1.486a.236.236,0,0,0,.028-.04,5.71,5.71,0,0,0,.549-.918,5.967,5.967,0,0,0,.444-3.859h2.854A8.708,8.708,0,0,1,201.037,339.477Z" transform="translate(-195.822 -338.188)" fill="url(#linear-gradient-4)"/>
          </g>
          <g id="Group_25" data-name="Group 25" transform="translate(3.97 6.586)">
            <path id="Path_11" data-name="Path 11" d="M197.815,342.97a8.35,8.35,0,0,1-.486.885,8.737,8.737,0,0,1-.805,1.09c-.111.125-.224.25-.341.37s-.226.226-.345.333-.237.213-.36.314l-.009.006a8.375,8.375,0,0,1-1.3.883c-.067-.066-.129-.133-.19-.2l-1.672-1.995-2.419-2.891-2.418,2.891a6.258,6.258,0,0,1-1.16-.682c-.051-.037-.1-.077-.146-.116-.078-.065-.156-.125-.229-.19a5.889,5.889,0,0,1-.837-.917l4.791-5.717,3.543,4.233,1.245,1.486.195.232.009.013.135.16h0a1.816,1.816,0,0,0,2.79-.187Z" transform="translate(-185.104 -337.032)" fill="#f7f7f7"/>
          </g>
        </g>
      </g>
    </g>
  </g>
</svg>
