<svg xmlns="http://www.w3.org/2000/svg" xmlns:xlink="http://www.w3.org/1999/xlink" width="34" height="34" viewBox="0 0 34 34">
  <defs>
    <linearGradient id="linear-gradient" x1="0.241" y1="0.165" x2="0.761" y2="0.837" gradientUnits="objectBoundingBox">
      <stop offset="0.011" stop-color="#81899e"/>
      <stop offset="0.823" stop-color="#5e6882"/>
    </linearGradient>
    <linearGradient id="linear-gradient-2" x1="0.818" y1="0.818" x2="0.302" y2="0.302" xlink:href="#linear-gradient"/>
    <linearGradient id="linear-gradient-3" x1="0.428" y1="0.444" x2="0.842" y2="0.776" gradientUnits="objectBoundingBox">
      <stop offset="0"/>
      <stop offset="0.823" stop-opacity="0"/>
    </linearGradient>
    <linearGradient id="linear-gradient-4" x1="0.5" x2="0.5" y2="1" gradientUnits="objectBoundingBox">
      <stop offset="0" stop-color="#f7f9ff"/>
      <stop offset="1" stop-color="#cbd7ff"/>
    </linearGradient>
  </defs>
  <g id="Group_1324" data-name="Group 1324" transform="translate(-880 -1103)">
    <circle id="Ellipse_62" data-name="Ellipse 62" cx="17" cy="17" r="17" transform="translate(880 1103)" fill="url(#linear-gradient)"/>
    <circle id="Ellipse_63" data-name="Ellipse 63" cx="14.072" cy="14.072" r="14.072" transform="translate(882.928 1105.928)" fill="url(#linear-gradient-2)"/>
    <path id="Path_6466" data-name="Path 6466" d="M232.479,458.341l12.1,6.418-1.777,8.574s-1.154,2.717-1.3,2.829-5.36.856-5.36.856h-2.308l-3.184-1.647s-4.387-5.781-4.4-5.9c-.311-2.409,3.451,2.711,3.636,2.6s3.184-2.076,3.407-2.3-.224-1.713,0-2.122-5.406-4.716-5.294-4.716c.942-.01,0-3.131,0-3.242s5.294.381,5.294.381Z" transform="translate(666.963 654.543)" opacity="0.17" fill="url(#linear-gradient-3)"/>
    <path id="Path_7768" data-name="Path 7768" d="M15.16,17.854a1.913,1.913,0,0,0-.489-1.381,4.277,4.277,0,0,0-1.636-.956,20.275,20.275,0,0,1-2-.861,6.728,6.728,0,0,1-1.445-.988,4.136,4.136,0,0,1-.935-1.318,4.467,4.467,0,0,1-.329-1.8A3.985,3.985,0,0,1,9.475,7.61a4.843,4.843,0,0,1,3.05-1.339V4.847a.85.85,0,0,1,.85-.85h0a.85.85,0,0,1,.85.85V6.3a4.429,4.429,0,0,1,2.944,1.573,4.608,4.608,0,0,1,.949,2.1,1.117,1.117,0,0,1-1.166,1.273H16.44a1.668,1.668,0,0,1-1.459-1.262,1.964,1.964,0,0,0-.352-.64,1.717,1.717,0,0,0-1.4-.638,1.78,1.78,0,0,0-1.35.5,1.863,1.863,0,0,0-.478,1.36,1.8,1.8,0,0,0,.468,1.3,5.154,5.154,0,0,0,1.732,1,18.408,18.408,0,0,1,2.094.967,5.828,5.828,0,0,1,1.381,1.02,3.877,3.877,0,0,1,.861,1.3,4.415,4.415,0,0,1,.3,1.69A3.968,3.968,0,0,1,17.1,20.765,4.94,4.94,0,0,1,14,22.094v1.27a.845.845,0,0,1-.845.845h0a.845.845,0,0,1-.845-.845V22.1a5.146,5.146,0,0,1-3.379-1.541A4.529,4.529,0,0,1,7.858,18.34a1.115,1.115,0,0,1,1.165-1.273h.511a1.707,1.707,0,0,1,1.476,1.259,2.162,2.162,0,0,0,.4.686,2.217,2.217,0,0,0,1.732.669,2.124,2.124,0,0,0,1.477-.489A1.733,1.733,0,0,0,15.16,17.854Z" transform="translate(884.024 1105.792)" fill="url(#linear-gradient-4)"/>
  </g>
</svg>
