<svg id="Group_320" data-name="Group 320" xmlns="http://www.w3.org/2000/svg" width="183.468" height="51.403" viewBox="0 0 183.468 51.403">
  <path id="Path_4895" data-name="Path 4895" d="M7.117,0H176.35a7.117,7.117,0,0,1,7.117,7.117V44.285A7.117,7.117,0,0,1,176.35,51.4H7.117A7.117,7.117,0,0,1,0,44.285V7.117A7.117,7.117,0,0,1,7.117,0Z" transform="translate(0)" fill="#060b14"/>
  <text id="Download_on_the" data-name="Download on the" transform="translate(56.532 16.196)" fill="#fff" font-size="7" font-family="OpenSans-Regular, Open Sans"><tspan x="0" y="0">Download on the</tspan></text>
  <text id="Apple_Store" data-name="Apple Store" transform="translate(54.774 36.748)" fill="#fff" font-size="16" font-family="OpenSans-Semibold, Open Sans" font-weight="600"><tspan x="0" y="0">Apple Store</tspan></text>
  <path id="Icon_awesome-apple" data-name="Icon awesome-apple" d="M19.865,16.98A5.809,5.809,0,0,1,22.976,11.7a6.686,6.686,0,0,0-5.271-2.775c-2.209-.174-4.624,1.288-5.507,1.288-.933,0-3.074-1.226-4.754-1.226C3.971,9.045.281,11.759.281,17.278a15.51,15.51,0,0,0,.9,5.053c.8,2.284,3.672,7.884,6.671,7.791,1.568-.037,2.676-1.114,4.717-1.114,1.979,0,3.006,1.114,4.754,1.114,3.024-.044,5.626-5.134,6.385-7.424a6.169,6.169,0,0,1-3.84-5.719ZM16.343,6.762A5.861,5.861,0,0,0,17.836,2.25a6.6,6.6,0,0,0-4.225,2.172A5.953,5.953,0,0,0,12.018,8.9,5.226,5.226,0,0,0,16.343,6.762Z" transform="translate(13.516 7.635)" fill="#fff"/>
</svg>
