<svg xmlns="http://www.w3.org/2000/svg" width="500.869" height="234.367" viewBox="0 0 500.869 234.367">
  <g id="saveing" transform="translate(-154.81 -530.19)">
    <path id="Path_4782" data-name="Path 4782" d="M723.109,787.023c0,1.662-.038,3.419-.12,5.253-.018.342-.033.692-.051,1.041-.073,1.379-.171,2.8-.291,4.254-.029.332-.056.661-.087,1q-.053.6-.113,1.212c-.167,1.713-.365,3.468-.6,5.25-.047.36-.093.721-.145,1.081-.234,1.726-.5,3.482-.792,5.253-.06.36-.122.73-.187,1.092q-.451,2.61-.986,5.25c-.076.369-.153.739-.231,1.106q-.437,2.082-.928,4.16-.264,1.095-.534,2.185-.664,2.643-1.419,5.25c-.1.363-.211.721-.32,1.086q-.794,2.656-1.68,5.246-.187.547-.38,1.094c-.521,1.471-1.068,2.921-1.633,4.34q-.467,1.168-.955,2.307c-.772,1.8-1.591,3.56-2.445,5.246-.187.367-.376.732-.563,1.092-.972,1.84-1.993,3.593-3.068,5.241-.227.352-.456.7-.692,1.037a44.672,44.672,0,0,1-4.136,5.237c-.467.507-.943,1-1.426,1.459a26.108,26.108,0,0,1-7.553,5.224c-.2.087-.4.174-.6.254l-.149.06c-.391.156-.788.3-1.184.429l-20.993.031-59.345.087-73.659-.443-28.795-.174-56.973-.34L278,867.89S246.08,849,246.08,816.211c0-.452.007-.9.018-1.359.472-17.526,5.166-50.926,45.542-68.266q4.348-1.865,9.268-3.475,4.4-1.432,9.282-2.627,6.21-1.515,13.231-2.6.691-.11,1.388-.209,3.36-.491,6.443-1.157c54.319-11.666,47.792-62.1,119.437-65.616a188.4,188.4,0,0,1,21.756.278,103.257,103.257,0,0,1,31.364,7.313c9.542,3.706,17.887,8,26.314,10.915l.576.2c8.267,2.8,16.643,4.232,26.341,2.458.47-.082.945-.178,1.424-.28,10.737-2.283,20.766-3.96,30.129-5.095l.581-.069c22.508-2.672,41.18-2.158,56.7.819.194.036.389.073.578.114a106.852,106.852,0,0,1,18.392,5.277q2.336.915,4.543,1.918c.045.02.091.038.134.06.247.113.489.227.734.34s.469.22.7.331l.064.033q2.723,1.3,5.261,2.75,3.007,1.712,5.766,3.606c.523.358,1.041.723,1.551,1.09a76.784,76.784,0,0,1,6.541,5.275q.607.544,1.2,1.1,2.707,2.536,5.119,5.27c.414.467.817.934,1.217,1.408q2.162,2.563,4.1,5.266c.262.365.518.732.774,1.1,1.19,1.715,2.316,3.475,3.379,5.264.231.387.461.781.685,1.172q1.455,2.526,2.754,5.13c.323.65.641,1.3.95,1.953q.811,1.7,1.555,3.433.627,1.448,1.217,2.91,1.045,2.606,1.976,5.261c.129.365.256.732.378,1.1q.627,1.839,1.206,3.7c.162.518.32,1.043.476,1.566.109.365.22.739.329,1.108q.137.481.276.959.544,1.929,1.048,3.873c.036.14.073.283.109.425q.14.547.276,1.095.647,2.62,1.226,5.257c.078.36.156.723.234,1.086q.557,2.626,1.048,5.259c.069.365.136.73.2,1.095q.3,1.618.569,3.23.114.671.207,1.4c.024.2.049.412.076.625.051.452.1.923.14,1.406.138,1.6.22,3.359.245,5.253C723.107,786.289,723.109,786.656,723.109,787.023Z" transform="translate(-70.965 -109.253)" fill="#f9f9f9" opacity="0.15"/>
    <g id="Group_272" data-name="Group 272" transform="translate(175.111 614.173)" opacity="0.32">
      <path id="Path_4783" data-name="Path 4783" d="M722.628,962.908v18.926c-.029.331-.056.661-.087,1-.036.4-.073.808-.113,1.212-.167,1.713-.365,3.468-.6,5.25-.047.36-.093.721-.145,1.081-.234,1.726-.5,3.481-.792,5.252-.06.36-.122.73-.187,1.092q-.451,2.61-.985,5.251c-.076.369-.154.738-.231,1.105q-.437,2.082-.928,4.16-.264,1.095-.534,2.185-.664,2.643-1.419,5.25c-.1.363-.211.721-.32,1.086q-.794,2.656-1.68,5.246-.187.547-.38,1.094c-.521,1.47-1.068,2.921-1.633,4.341q-.467,1.168-.954,2.307c-.772,1.8-1.591,3.56-2.445,5.246-.187.367-.376.732-.563,1.092-.972,1.84-1.993,3.593-3.068,5.242-.227.351-.456.7-.692,1.037a44.67,44.67,0,0,1-4.136,5.237c-.467.507-.943,1-1.426,1.459a26.1,26.1,0,0,1-7.553,5.224c-.2.087-.4.174-.6.254l-.149.06-155.182.1-28.795-.173-56.973-.34-172.087-1.032s-31.918-18.89-31.918-51.678c0-.452.007-.9.018-1.359.472-17.526,5.166-50.926,45.542-68.266v15.78h9.268V927.374q4.4-1.432,9.282-2.628,6.21-1.515,13.23-2.6.691-.11,1.388-.209,3.361-.49,6.443-1.157v23.44h10.243v-5.475l12.08.049v-8.872h2.432v-1.755h.32v1.755h9.328v0H367.5v-1.758h.32v1.758h2.249v17.647h14.383v6.494h7.993v-3.771h7.415v-14.97h3.7v-6.984h.561v6.984h8.863V922.233h.87v13.088h5.862v-.18H419.7v-1.662h.009v-1.573H419.7v-2.614h.009v-1.673H419.7V925h.009v-1.671H419.7v-2.616h.009v-1.8H419.7V916.3h.009V914H419.7v-2.616h.009V909.65h1.746v-1.958h.28v1.958h12.941v-1.958h.278v1.958h2.36v13.684l1.664.011v-.011h-.013v-2.616h.013v-1.8h-.013V916.3h.013v-1.8h-.013v-2.623h.013v-.009h15.691v.009h2.7c.14.071.278.138.418.209v14.935h11.471v19.611h9.266V910.362h2.018v-2.536h.363v2.536h7.317v-2.536h.362v2.536h10.363v-2.536h.363v2.536h6.521v-2.536h.363v2.536h2.681v33.854h10.241V938.74l12.08.049v-8.872h2.432v-1.755h.32v1.755h9.328v0h1.864v-1.757h.323v1.757h2.249v17.647H562.1v6.494h7.993v-3.771h7.415v-14.97h3.7v-6.984h.558v6.984h8.863V922.231h.87v13.088h5.862v-.18h-.009v-1.662h.009V931.9h-.009V929.29h.009v-1.673h-.009V925h.009v-1.671h-.009v-2.616h.009v-1.8h-.009v-2.616h.009V914h-.009v-2.616h.009v-1.733h1.749V907.69h.278v1.958h12.939V907.69h.28v1.958h2.36v13.685l1.64.011h.022v-.011h-.013v-2.616h.013v-1.8h-.013v-2.616h.013v-1.8h-.013v-2.62h.013v-.009h15.691v.009h2.7c.14.071.278.138.418.209v14.935h19.255v19.613h9.268v-36.27h2.016v-2.536h.363v2.536h7.319v-2.536h.36v2.536h10.365v-2.536h.361v2.536H694.3v33.856h10.243V938.74l12.08.049v-2.236c.162.518.32,1.043.476,1.566.109.365.22.739.329,1.108.091.32.182.641.276.959q.544,1.929,1.048,3.873c.036.14.073.283.109.425q.14.547.276,1.095.647,2.62,1.226,5.257.117.541.233,1.086.557,2.626,1.048,5.259c.069.365.136.73.2,1.095q.3,1.619.57,3.23Q722.536,962.177,722.628,962.908Z" transform="translate(-246.06 -907.69)" fill="#e8e9ea"/>
      <g id="Group_271" data-name="Group 271" transform="translate(173.542 1.953)">
        <rect id="Rectangle_10" data-name="Rectangle 10" width="23.153" height="5.738" transform="translate(66.123 0.719)" fill="#f9f9f9"/>
        <rect id="Rectangle_11" data-name="Rectangle 11" width="23.153" height="5.738" transform="translate(66.123 9.551)" fill="#f9f9f9"/>
        <rect id="Rectangle_12" data-name="Rectangle 12" width="23.153" height="5.738" transform="translate(66.123 18.568)" fill="#f9f9f9"/>
        <rect id="Rectangle_13" data-name="Rectangle 13" width="23.153" height="5.738" transform="translate(66.123 27.729)" fill="#f9f9f9"/>
        <rect id="Rectangle_14" data-name="Rectangle 14" width="23.153" height="5.738" transform="translate(66.123 36.568)" fill="#f9f9f9"/>
        <g id="Group_261" data-name="Group 261" transform="translate(177.785)">
          <rect id="Rectangle_15" data-name="Rectangle 15" width="10.803" height="3.484" fill="#f9f9f9"/>
          <rect id="Rectangle_16" data-name="Rectangle 16" width="10.803" height="3.484" transform="translate(0 5.364)" fill="#f9f9f9"/>
          <rect id="Rectangle_17" data-name="Rectangle 17" width="10.803" height="3.484" transform="translate(0 10.841)" fill="#f9f9f9"/>
          <rect id="Rectangle_18" data-name="Rectangle 18" width="10.803" height="3.484" transform="translate(0 16.403)" fill="#f9f9f9"/>
          <rect id="Rectangle_19" data-name="Rectangle 19" width="10.803" height="3.484" transform="translate(0 21.771)" fill="#f9f9f9"/>
        </g>
        <g id="Group_262" data-name="Group 262" transform="translate(177.785 27.68)">
          <rect id="Rectangle_20" data-name="Rectangle 20" width="10.803" height="3.484" fill="#f9f9f9"/>
          <rect id="Rectangle_21" data-name="Rectangle 21" width="10.803" height="3.484" transform="translate(0 5.364)" fill="#f9f9f9"/>
          <rect id="Rectangle_22" data-name="Rectangle 22" width="10.803" height="3.486" transform="translate(0 10.839)" fill="#f9f9f9"/>
          <rect id="Rectangle_23" data-name="Rectangle 23" width="10.803" height="3.484" transform="translate(0 16.403)" fill="#f9f9f9"/>
          <rect id="Rectangle_24" data-name="Rectangle 24" width="10.803" height="3.484" transform="translate(0 21.771)" fill="#f9f9f9"/>
        </g>
        <g id="Group_263" data-name="Group 263" transform="translate(197 2.285)">
          <rect id="Rectangle_25" data-name="Rectangle 25" width="11.577" height="3.484" fill="#f9f9f9"/>
          <rect id="Rectangle_26" data-name="Rectangle 26" width="11.577" height="3.484" transform="translate(0 5.366)" fill="#f9f9f9"/>
          <rect id="Rectangle_27" data-name="Rectangle 27" width="11.577" height="3.484" transform="translate(0 10.841)" fill="#f9f9f9"/>
          <rect id="Rectangle_28" data-name="Rectangle 28" width="11.577" height="3.484" transform="translate(0 16.405)" fill="#f9f9f9"/>
          <rect id="Rectangle_29" data-name="Rectangle 29" width="11.577" height="3.484" transform="translate(0 21.773)" fill="#f9f9f9"/>
        </g>
        <g id="Group_264" data-name="Group 264" transform="translate(197 29.653)">
          <rect id="Rectangle_30" data-name="Rectangle 30" width="11.577" height="3.484" fill="#f9f9f9"/>
          <rect id="Rectangle_31" data-name="Rectangle 31" width="11.577" height="3.484" transform="translate(0 5.364)" fill="#f9f9f9"/>
          <rect id="Rectangle_32" data-name="Rectangle 32" width="11.577" height="3.484" transform="translate(0 10.841)" fill="#f9f9f9"/>
          <rect id="Rectangle_33" data-name="Rectangle 33" width="11.577" height="3.486" transform="translate(0 16.403)" fill="#f9f9f9"/>
          <rect id="Rectangle_34" data-name="Rectangle 34" width="11.577" height="3.484" transform="translate(0 21.771)" fill="#f9f9f9"/>
        </g>
        <g id="Group_265" data-name="Group 265" transform="translate(197 57.58)">
          <rect id="Rectangle_35" data-name="Rectangle 35" width="11.577" height="3.484" fill="#f9f9f9"/>
          <rect id="Rectangle_36" data-name="Rectangle 36" width="11.577" height="3.484" transform="translate(0 5.366)" fill="#f9f9f9"/>
          <rect id="Rectangle_37" data-name="Rectangle 37" width="11.577" height="3.484" transform="translate(0 10.841)" fill="#f9f9f9"/>
          <rect id="Rectangle_38" data-name="Rectangle 38" width="11.577" height="3.484" transform="translate(0 16.405)" fill="#f9f9f9"/>
          <rect id="Rectangle_39" data-name="Rectangle 39" width="11.577" height="3.484" transform="translate(0 21.773)" fill="#f9f9f9"/>
        </g>
        <rect id="Rectangle_40" data-name="Rectangle 40" width="21.079" height="5.738" transform="translate(253.621 0.719)" fill="#f9f9f9"/>
        <rect id="Rectangle_41" data-name="Rectangle 41" width="21.079" height="5.738" transform="translate(253.621 9.551)" fill="#f9f9f9"/>
        <rect id="Rectangle_42" data-name="Rectangle 42" width="21.079" height="5.738" transform="translate(253.621 18.568)" fill="#f9f9f9"/>
        <rect id="Rectangle_43" data-name="Rectangle 43" width="21.079" height="5.738" transform="translate(253.621 27.729)" fill="#f9f9f9"/>
        <rect id="Rectangle_44" data-name="Rectangle 44" width="21.079" height="5.738" transform="translate(253.621 36.568)" fill="#f9f9f9"/>
        <g id="Group_266" data-name="Group 266">
          <rect id="Rectangle_45" data-name="Rectangle 45" width="11.577" height="3.484" fill="#f9f9f9"/>
          <rect id="Rectangle_46" data-name="Rectangle 46" width="11.577" height="3.484" transform="translate(0 5.364)" fill="#f9f9f9"/>
          <rect id="Rectangle_47" data-name="Rectangle 47" width="11.577" height="3.484" transform="translate(0 10.841)" fill="#f9f9f9"/>
          <rect id="Rectangle_48" data-name="Rectangle 48" width="11.577" height="3.484" transform="translate(0 16.403)" fill="#f9f9f9"/>
          <rect id="Rectangle_49" data-name="Rectangle 49" width="11.577" height="3.484" transform="translate(0 21.771)" fill="#f9f9f9"/>
        </g>
        <g id="Group_267" data-name="Group 267" transform="translate(0 27.68)">
          <rect id="Rectangle_50" data-name="Rectangle 50" width="11.577" height="3.484" fill="#f9f9f9"/>
          <rect id="Rectangle_51" data-name="Rectangle 51" width="11.577" height="3.484" transform="translate(0 5.364)" fill="#f9f9f9"/>
          <rect id="Rectangle_52" data-name="Rectangle 52" width="11.577" height="3.486" transform="translate(0 10.839)" fill="#f9f9f9"/>
          <rect id="Rectangle_53" data-name="Rectangle 53" width="11.577" height="3.484" transform="translate(0 16.403)" fill="#f9f9f9"/>
          <rect id="Rectangle_54" data-name="Rectangle 54" width="11.577" height="3.484" transform="translate(0 21.771)" fill="#f9f9f9"/>
        </g>
        <g id="Group_268" data-name="Group 268" transform="translate(19.604 2.285)">
          <rect id="Rectangle_55" data-name="Rectangle 55" width="13.157" height="3.484" fill="#f9f9f9"/>
          <rect id="Rectangle_56" data-name="Rectangle 56" width="13.157" height="3.484" transform="translate(0 5.366)" fill="#f9f9f9"/>
          <rect id="Rectangle_57" data-name="Rectangle 57" width="13.157" height="3.484" transform="translate(0 10.841)" fill="#f9f9f9"/>
          <rect id="Rectangle_58" data-name="Rectangle 58" width="13.157" height="3.484" transform="translate(0 16.405)" fill="#f9f9f9"/>
          <rect id="Rectangle_59" data-name="Rectangle 59" width="13.157" height="3.484" transform="translate(0 21.773)" fill="#f9f9f9"/>
        </g>
        <g id="Group_269" data-name="Group 269" transform="translate(19.604 29.653)">
          <rect id="Rectangle_60" data-name="Rectangle 60" width="13.157" height="3.484" fill="#f9f9f9"/>
          <rect id="Rectangle_61" data-name="Rectangle 61" width="13.157" height="3.484" transform="translate(0 5.364)" fill="#f9f9f9"/>
          <rect id="Rectangle_62" data-name="Rectangle 62" width="13.157" height="3.484" transform="translate(0 10.841)" fill="#f9f9f9"/>
          <rect id="Rectangle_63" data-name="Rectangle 63" width="13.157" height="3.486" transform="translate(0 16.403)" fill="#f9f9f9"/>
          <rect id="Rectangle_64" data-name="Rectangle 64" width="13.157" height="3.484" transform="translate(0 21.771)" fill="#f9f9f9"/>
        </g>
        <g id="Group_270" data-name="Group 270" transform="translate(19.604 57.58)">
          <rect id="Rectangle_65" data-name="Rectangle 65" width="13.157" height="3.484" fill="#f9f9f9"/>
          <rect id="Rectangle_66" data-name="Rectangle 66" width="13.157" height="3.484" transform="translate(0 5.366)" fill="#f9f9f9"/>
          <rect id="Rectangle_67" data-name="Rectangle 67" width="13.157" height="3.484" transform="translate(0 10.841)" fill="#f9f9f9"/>
          <rect id="Rectangle_68" data-name="Rectangle 68" width="13.157" height="3.484" transform="translate(0 16.405)" fill="#f9f9f9"/>
          <rect id="Rectangle_69" data-name="Rectangle 69" width="13.157" height="3.484" transform="translate(0 21.773)" fill="#f9f9f9"/>
        </g>
      </g>
    </g>
    <path id="Path_4784" data-name="Path 4784" d="M1244.33,759.5s5.021-8.292,17.026-7.371c0,0,17.431-13.818,36.016-1.842,0,0,19.758-2.968,34.39,2.57,9.755,3.691,12.977,7.564,12.977,7.564Z" transform="translate(-847.131 -167.338)" fill="#f8fcff" opacity="0.4"/>
    <path id="Path_4785" data-name="Path 4785" d="M1727.16,880.143a11.609,11.609,0,0,1,11.032-5.012s11.293-9.4,23.338-1.253c0,0,12.8-2.018,22.283,1.749,6.32,2.512,8.41,5.146,8.41,5.146Z" transform="translate(-1222.545 -264.644)" fill="#f8fcff" opacity="0.4"/>
    <path id="Path_4786" data-name="Path 4786" d="M2139.87,769.162a10.431,10.431,0,0,1,10.047-4.877s10.285-9.144,21.251-1.219c0,0,11.658-1.964,20.292,1.7,5.755,2.443,7.658,5.006,7.658,5.006Z" transform="translate(-1543.438 -178.555)" fill="#f8fcff" opacity="0.4"/>
    <g id="Group_273" data-name="Group 273" transform="translate(347.741 530.19)">
      <rect id="Rectangle_70" data-name="Rectangle 70" width="4.505" height="205.145" transform="translate(8.601 19.424)" fill="#a8a8a8"/>
      <path id="Path_4787" data-name="Path 4787" d="M1054.874,1365.123s-1.686,1.493-6.387,1.493c-4.418,0-6.387-1.493-6.387-1.493v-48.192a6.032,6.032,0,0,1,6.031-6.031h.414a6.331,6.331,0,0,1,6.332,6.332v47.892Z" transform="translate(-1037.633 -1137.213)" fill="#ebedf2"/>
      <path id="Path_4788" data-name="Path 4788" d="M1040.623,593.837h-15.5a3.1,3.1,0,0,1-3.1-3.1v-57.44a3.1,3.1,0,0,1,3.1-3.1h15.5a3.1,3.1,0,0,1,3.1,3.1v57.44A3.1,3.1,0,0,1,1040.623,593.837Z" transform="translate(-1022.02 -530.19)" fill="#a8a8a8"/>
      <circle id="Ellipse_7" data-name="Ellipse 7" cx="8.329" cy="8.329" r="8.329" transform="translate(0.899 25.128) rotate(-13.628)" fill="#ebedf2"/>
      <circle id="Ellipse_8" data-name="Ellipse 8" cx="8.329" cy="8.329" r="8.329" transform="translate(1.332 56.874) rotate(-80.055)" fill="#ebedf2"/>
      <circle id="Ellipse_9" data-name="Ellipse 9" cx="8.329" cy="8.329" r="8.329" transform="matrix(0.162, -0.987, 0.987, 0.162, 1.389, 19.056)" fill="#f91652"/>
    </g>
    <g id="Group_316" data-name="Group 316" transform="translate(154.81 660.935)">
      <path id="Path_4821" data-name="Path 4821" d="M257.48,1368.213h187.3l63.256-5.7s-11.319-28.2-14.4-28.625-230.217,0-230.217,0Z" transform="translate(-234.639 -1285.686)" fill="#3f444f"/>
      <path id="Path_4822" data-name="Path 4822" d="M457.709,1172.3c-.661,2.294-1.9,2.789-1.9,7.733,0,1.942.434,4.392-.541,6.545-.425.934-3.05,2.489-2.318,5.611a55.292,55.292,0,0,0-4.512,3.78,25.022,25.022,0,0,0-.487,2.805c-4.661,1.907-25.56,1.184-25.56,1.184s.634-34.53-28.387-30.506-23.952,32.686-23.952,32.686l-139.533,2.487s2.267-36.4-28.539-32.574c-25.6,3.181-19.021,32.436-19.021,32.436-25.518,1.319-28.154-7.344-28.154-7.344v-3.575h1.6v-9.417h-1.6v-7.012l5.368-12.29c2.26-3.884,8.387-7.061,16.307-9.642,23.753-7.746,63.632-10.129,63.632-10.129,10.77-6.192,19.7-10.792,26.681-14.134,11.139-5.33,23.838-10.527,36.13-11.742a278.689,278.689,0,0,1,67.351,1.526c7.838,1.27,47.24,18.427,50.208,19.911s27.155,3.5,30.263,3.871a3.388,3.388,0,0,1,3.012,3.484l.427,2.759-.5,1.615-2.32-.807.979,3.49-.3,1.464,3.117.5.656,4.242.4,2.561C458.47,1164.944,458.052,1171.118,457.709,1172.3Z" transform="translate(-154.81 -1117.877)" fill="#475056"/>
      <g id="Group_301" data-name="Group 301" transform="translate(26.249 51.774)">
        <circle id="Ellipse_12" data-name="Ellipse 12" cx="21.486" cy="21.486" r="21.486" transform="translate(0 42.247) rotate(-79.444)" fill="#1a1d23"/>
        <g id="Group_296" data-name="Group 296" transform="translate(8.248 8.252)">
          <path id="Path_4823" data-name="Path 4823" d="M326.673,1421.3a16.8,16.8,0,1,1,16.8-16.8A16.822,16.822,0,0,1,326.673,1421.3Zm0-32.054a15.25,15.25,0,1,0,15.251,15.25A15.267,15.267,0,0,0,326.673,1389.243Z" transform="translate(-309.87 -1387.69)" fill="#f2f2f2"/>
        </g>
        <g id="Group_300" data-name="Group 300" transform="translate(9.549 8.926)">
          <g id="Group_297" data-name="Group 297" transform="translate(12.074)">
            <path id="Path_4824" data-name="Path 4824" d="M376.286,1422.892h-6.02l1.933-16.5-2.209-15.671,6.881.425-2.294,15.246Z" transform="translate(-369.99 -1390.72)" fill="#f2f2f2"/>
          </g>
          <g id="Group_298" data-name="Group 298" transform="translate(0 5.066)">
            <path id="Path_4825" data-name="Path 4825" d="M318.73,1435.025l-3.01-5.215,15.257-6.574,12.47-9.747,3.07,6.171-14.352,5.635Z" transform="translate(-315.72 -1413.49)" fill="#f2f2f2"/>
          </g>
          <g id="Group_299" data-name="Group 299" transform="translate(0.596 4.881)">
            <path id="Path_4826" data-name="Path 4826" d="M318.4,1417.69l3.308-5.03,12.725,10.678,14.307,6.766-4.136,5.515-11.48-10.292Z" transform="translate(-318.4 -1412.66)" fill="#f2f2f2"/>
          </g>
          <path id="Path_4827" data-name="Path 4827" d="M360.05,1443.486a5.606,5.606,0,1,1,5.606,5.607A5.606,5.606,0,0,1,360.05,1443.486Z" transform="translate(-350.188 -1427.388)" fill="#f2f2f2"/>
        </g>
      </g>
      <g id="Group_307" data-name="Group 307" transform="translate(215.035 50.04)">
        <circle id="Ellipse_13" data-name="Ellipse 13" cx="21.486" cy="21.486" r="21.486" transform="translate(0 41.129) rotate(-73.154)" fill="#1a1d23"/>
        <g id="Group_302" data-name="Group 302" transform="translate(9.981 9.986)">
          <path id="Path_4828" data-name="Path 4828" d="M1183.043,1421.3a16.8,16.8,0,1,1,16.8-16.8A16.822,16.822,0,0,1,1183.043,1421.3Zm0-32.054a15.25,15.25,0,1,0,15.25,15.25A15.267,15.267,0,0,0,1183.043,1389.243Z" transform="translate(-1166.24 -1387.69)" fill="#f2f2f2"/>
        </g>
        <g id="Group_306" data-name="Group 306" transform="translate(11.282 10.66)">
          <g id="Group_303" data-name="Group 303" transform="translate(12.074)">
            <path id="Path_4829" data-name="Path 4829" d="M1232.656,1422.892h-6.02l1.933-16.5-2.209-15.671,6.881.425-2.294,15.246Z" transform="translate(-1226.36 -1390.72)" fill="#f2f2f2"/>
          </g>
          <g id="Group_304" data-name="Group 304" transform="translate(0 5.066)">
            <path id="Path_4830" data-name="Path 4830" d="M1175.1,1435.025l-3.01-5.215,15.257-6.574,12.467-9.747,3.072,6.171-14.352,5.635Z" transform="translate(-1172.09 -1413.49)" fill="#f2f2f2"/>
          </g>
          <g id="Group_305" data-name="Group 305" transform="translate(0.596 4.881)">
            <path id="Path_4831" data-name="Path 4831" d="M1174.77,1417.69l3.308-5.03,12.723,10.678,14.309,6.766-4.136,5.515-11.479-10.292Z" transform="translate(-1174.77 -1412.66)" fill="#f2f2f2"/>
          </g>
          <path id="Path_4832" data-name="Path 4832" d="M1216.42,1443.486a5.606,5.606,0,1,1,5.606,5.607A5.606,5.606,0,0,1,1216.42,1443.486Z" transform="translate(-1206.558 -1427.388)" fill="#f2f2f2"/>
        </g>
      </g>
      <path id="Path_4833" data-name="Path 4833" d="M197.489,1328.7H183.433a12.84,12.84,0,0,0-11.208,6.576l-.483.863a1.307,1.307,0,0,0,1.141,1.945H189.8a4.181,4.181,0,0,0,3.075-1.346l5.517-5.98A1.227,1.227,0,0,0,197.489,1328.7Z" transform="translate(-167.844 -1281.798)" fill="#e5e4e3"/>
      <path id="Path_4834" data-name="Path 4834" d="M180.424,1463.22h-4.8a4.379,4.379,0,0,0-3.824,2.245l-.165.294a.445.445,0,0,0,.389.663H177.8a1.437,1.437,0,0,0,1.05-.458l1.882-2.04A.419.419,0,0,0,180.424,1463.22Z" transform="translate(-167.85 -1386.39)" fill="#3f444f"/>
      <path id="Path_4835" data-name="Path 4835" d="M996.006,1162.295l-71.723,1.7a2.5,2.5,0,0,1-2.563-2.5V1144.97a2.331,2.331,0,0,1,2.365-2.331c30.586.425,41.066,1.277,47.353,3.446,5.544,1.913,18.51,9.778,25.211,13.769A1.314,1.314,0,0,1,996.006,1162.295Z" transform="translate(-751.103 -1137.13)" fill="#f2f2f2"/>
      <path id="Path_4836" data-name="Path 4836" d="M660.538,1142.141l3.417.04v21.553l-69.193,1.644a.9.9,0,0,1-.527-1.651C602.319,1158.279,629.4,1141.789,660.538,1142.141Z" transform="translate(-496.164 -1136.739)" fill="#f2f2f2"/>
      <path id="Path_4837" data-name="Path 4837" d="M1254.4,1220.562l-.038,0v-2.995c.245.147.483.287.714.425A1.382,1.382,0,0,1,1254.4,1220.562Z" transform="translate(-1009.739 -1195.391)" fill="#f2f2f2"/>
      <path id="Path_4838" data-name="Path 4838" d="M892.094,1160.23l-8.474-.67.565-23.051h7.909Z" transform="translate(-721.479 -1132.365)" fill="#475056"/>
      <path id="Path_4839" data-name="Path 4839" d="M1149.143,1170.789h-3.953v-20.7l3.953,2.374Z" transform="translate(-924.857 -1142.923)" fill="#475056"/>
      <path id="Path_4840" data-name="Path 4840" d="M601.384,1214.05l2.109,6.988-11.542.274a.685.685,0,0,1-.418-1.239C594.14,1218.2,598.968,1214.857,601.384,1214.05Z" transform="translate(-494.152 -1192.654)" fill="#1a1d23"/>
      <g id="Group_308" data-name="Group 308" transform="translate(96.211 4.856)">
        <path id="Path_4841" data-name="Path 4841" d="M588.359,1164.081a1.085,1.085,0,0,1-.621-1.975l.24-.167c.249-.173.529-.365.836-.572.253-.171.525-.352.814-.543l.436-.287c.331-.218.683-.443,1.055-.681l.823-.523.047-.029.122-.075c.24-.149.492-.307.752-.467l.058-.035.26-.16c.129-.08.265-.162.4-.245.189-.116.383-.232.581-.349.554-.334,1.15-.685,1.771-1.044.191-.111.387-.225.585-.338.392-.225.794-.453,1.208-.683h0l.291-.162c.834-.463,1.678-.923,2.512-1.366l.274-.145c.127-.067.254-.134.38-.2,1.586-.832,3.217-1.647,4.848-2.425l.507-.24q.764-.361,1.55-.721c.174-.08.352-.16.53-.24q.524-.237,1.065-.478l.541-.238c.539-.238,1.113-.485,1.755-.755.331-.14.668-.278,1-.416,2.263-.932,4.567-1.809,6.852-2.6l.5-.174.567-.193.712-.238c.194-.065.385-.127.578-.189l.022-.007c.2-.067.4-.131.608-.2.367-.118.736-.236,1.108-.349.251-.078.507-.158.765-.236q.587-.177,1.179-.351l.656-.189c.414-.118.828-.234,1.246-.347.826-.227,1.669-.447,2.5-.656l.051-.013c.074-.018.147-.038.223-.056.354-.089.716-.176,1.081-.262.214-.051.434-.1.654-.153l.165-.038c.162-.038.327-.076.489-.111.218-.049.436-.1.656-.145s.441-.1.661-.142.443-.094.665-.138.443-.091.668-.135l.036-.007c.211-.042.423-.082.632-.124l.632-.12c.238-.044.476-.087.714-.129l.458-.083.216-.038c.452-.078.9-.151,1.353-.223l.681-.107.036,0q.6-.09,1.2-.174c.748-.1,1.5-.2,2.234-.285l.049-.007c.207-.024.411-.047.618-.069.142-.018.3-.034.445-.047s.307-.033.467-.049.345-.036.523-.052c.231-.022.467-.044.7-.064s.449-.038.676-.056c.18-.016.352-.029.525-.04l1-.069c.2-.013.4-.025.594-.036l.087,0c.216-.013.441-.024.661-.033.176-.009.354-.018.532-.025h.018l.476-.02.394-.014.469-.013a2.21,2.21,0,0,1,1.633.639,2.234,2.234,0,0,1,.681,1.613v17.862a2.775,2.775,0,0,1-2.692,2.757l-63.254,1.5A.089.089,0,0,1,588.359,1164.081ZM598.8,1156.6l-.391.218c-.456.254-.9.505-1.33.752-.2.113-.392.225-.581.336-.616.356-1.206.705-1.757,1.035-.2.118-.389.233-.576.347l-.4.243c-.089.053-.171.1-.254.156l-.06.038c-.258.158-.509.314-.752.465l-.16.1c-.28.176-.554.349-.816.518q-.551.35-1.041.672l-.434.285c-.287.189-.554.367-.805.536-.3.2-.578.391-.826.565l-.116.08,11.882-.283,51.224-1.217a1.635,1.635,0,0,0,1.589-1.626v-17.862a1.121,1.121,0,0,0-1.152-1.121l-.463.013-.394.013c-.156,0-.309.011-.465.018h-.018c-.176.006-.352.015-.525.024-.218.009-.436.02-.652.034l-.087,0c-.194.011-.387.022-.583.036l-1,.067c-.169.011-.338.027-.509.04-.234.018-.456.036-.676.056s-.465.04-.7.062c-.176.016-.345.033-.516.051s-.309.029-.456.047l-.445.047-.612.067-.047.006c-.725.085-1.468.178-2.207.28-.4.056-.792.111-1.186.172l-.033,0-.676.1q-.674.107-1.337.22l-.216.038-.452.08c-.238.042-.474.084-.707.129-.209.038-.416.078-.625.12s-.418.082-.627.123l-.036.006c-.22.042-.436.087-.654.134s-.443.091-.661.138l-.652.14c-.218.047-.434.1-.652.144l-.483.109-.167.038c-.216.049-.43.1-.643.151q-.544.127-1.075.26l-.209.053-.053.014c-.825.207-1.66.425-2.478.65-.414.113-.826.227-1.232.345l-.652.187c-.389.113-.779.231-1.168.347-.253.075-.505.153-.756.231-.369.114-.736.231-1.1.347-.2.062-.4.127-.6.194l-.024.009-.572.187-.71.238c-.187.062-.374.124-.558.189l-.5.173c-2.267.79-4.552,1.657-6.792,2.583l-1,.414c-.634.267-1.2.512-1.737.748l-.541.238c-.356.158-.71.313-1.057.474-.178.08-.352.158-.523.238-.523.238-1.035.476-1.539.716l-.505.24c-1.615.772-3.233,1.58-4.805,2.4-.127.067-.254.136-.383.2l-.271.142C600.311,1155.779,599.554,1156.191,598.8,1156.6Z" transform="translate(-587.272 -1139.704)" fill="#3f444f"/>
      </g>
      <g id="Group_309" data-name="Group 309" transform="translate(223.788 10.301)">
        <path id="Path_4842" data-name="Path 4842" d="M1162.4,1180.092a1.62,1.62,0,0,1-1.135-.47,1.853,1.853,0,0,1-.547-1.323v-12.06c0-.685.1-1.562.656-1.909a2.194,2.194,0,0,1,1.88.176c.589.289,1,.5,1.224.619.024.011.056.029.089.047l.24.131c3.006,1.642,7.284,4.227,12.719,7.68l.689.438c.547.349,1.081.692,1.593,1.021l1.907,1.231q.5.32.952.618c.042.027.089.056.136.087l.042.027a1.75,1.75,0,0,1,.7,1.962,1.6,1.6,0,0,1-1.5,1.217l-.207,0-19.393.5A.286.286,0,0,1,1162.4,1180.092Zm.1-14.763a.707.707,0,0,0-.371.111.925.925,0,0,0-.416.8v12.06a.848.848,0,0,0,.245.607.627.627,0,0,0,.454.185l19.6-.509a.623.623,0,0,0,.566-.49.753.753,0,0,0-.283-.85l-.042-.026c-.042-.029-.087-.056-.131-.085l-.954-.621-1.9-1.228c-.511-.329-1.045-.672-1.59-1.019-.227-.145-.456-.291-.687-.436-5.417-3.444-9.678-6.016-12.663-7.648l-.242-.134-.074-.04c-.216-.118-.627-.325-1.2-.605A.724.724,0,0,0,1162.506,1165.328Z" transform="translate(-1160.72 -1164.177)" fill="#3f444f"/>
      </g>
      <path id="Path_4843" data-name="Path 4843" d="M601.384,1214.05l2.109,6.988-11.542.274a.685.685,0,0,1-.418-1.239C594.14,1218.2,598.968,1214.857,601.384,1214.05Z" transform="translate(-494.152 -1192.654)" fill="#1a1d23"/>
      <g id="Group_310" data-name="Group 310" transform="translate(170.049 4.946)">
        <path id="Path_4844" data-name="Path 4844" d="M922.236,1162.6a3.068,3.068,0,0,1-3.066-3.068V1143a2.9,2.9,0,0,1,2.939-2.894c31.569.438,41.344,1.155,47.545,3.481l.367.138v17.736l-47.7,1.132Zm-.169-21.357a1.766,1.766,0,0,0-1.766,1.767v16.525a1.938,1.938,0,0,0,1.984,1.935l46.6-1.106v-15.844c-6.034-2.14-16.378-2.854-46.8-3.277Z" transform="translate(-919.17 -1140.11)" fill="#3f444f"/>
      </g>
      <path id="Path_4845" data-name="Path 4845" d="M1424.049,1276.14h-13.5a6.555,6.555,0,0,1-5.15-2.5l-5.108-6.492a.932.932,0,0,1,.734-1.508h21.4l-.5,1.615-2.32-.808.979,3.491-.3,1.464,3.117.5Z" transform="translate(-1123.046 -1232.767)" fill="#a9453d"/>
      <g id="Group_311" data-name="Group 311" transform="translate(166.358 5.225)">
        <rect id="Rectangle_74" data-name="Rectangle 74" width="72.368" height="0.565" transform="translate(0 72.361) rotate(-89.318)" fill="#3f444f"/>
      </g>
      <g id="Group_312" data-name="Group 312" transform="translate(75.433 76.542)">
        <rect id="Rectangle_75" data-name="Rectangle 75" width="139.628" height="0.565" transform="translate(0 2.765) rotate(-1.135)" fill="#3f444f"/>
      </g>
      <path id="Path_4846" data-name="Path 4846" d="M815.773,1301.766c0,.765-3.415,1.386-7.626,1.386s-7.627-.621-7.627-1.386,3.415-1.386,7.627-1.386S815.773,1301,815.773,1301.766Z" transform="translate(-656.867 -1259.778)" fill="#272a2d"/>
      <path id="Path_4847" data-name="Path 4847" d="M1135.052,1301.766c0,.765-3.415,1.386-7.626,1.386s-7.626-.621-7.626-1.386,3.415-1.386,7.626-1.386S1135.052,1301,1135.052,1301.766Z" transform="translate(-905.116 -1259.778)" fill="#272a2d"/>
      <g id="Group_313" data-name="Group 313" transform="translate(209.031 25.169)">
        <path id="Path_4848" data-name="Path 4848" d="M1094.955,1282.686l-.565-.031c.389-7.195,2.523-13.257,6.338-18.02a29.936,29.936,0,0,1,12.267-8.881,46.4,46.4,0,0,1,16.984-3.226V1231.01h.565v22.1l-.294-.011a45.66,45.66,0,0,0-17.057,3.186,29.365,29.365,0,0,0-12.031,8.714C1097.427,1269.662,1095.338,1275.616,1094.955,1282.686Z" transform="translate(-1094.39 -1231.01)" fill="#3f444f"/>
      </g>
      <g id="Group_314" data-name="Group 314" transform="translate(92.426 28.066)">
        <path id="Path_4849" data-name="Path 4849" d="M570.287,1295.21a302.135,302.135,0,0,1,1.731-39.126,91.456,91.456,0,0,1,2.056-12.054l.545.151c-.042.149-4.182,15.389-3.764,51.02Z" transform="translate(-570.258 -1244.03)" fill="#3f444f"/>
      </g>
      <g id="Group_315" data-name="Group 315" transform="translate(161.929 5.229)">
        <rect id="Rectangle_76" data-name="Rectangle 76" width="11.05" height="0.565" fill="#3f444f"/>
      </g>
      <path id="Path_4850" data-name="Path 4850" d="M1451.9,1432.29a21.844,21.844,0,0,0-3.457-1.179c-1.3-.245-8.861.732-8.861.732a43.976,43.976,0,0,1,4.959-2.928c1.706-.732,9.675-2.236,9.675-2.236C1453.791,1427.614,1451.166,1429.172,1451.9,1432.29Z" transform="translate(-1153.753 -1357.979)" fill="#3e4449"/>
      <path id="Path_4851" data-name="Path 4851" d="M1470.105,1355.323l-6.761-2.8-4.025-5.379,9.026,3.306,3.655.114Z" transform="translate(-1169.102 -1296.135)" fill="#3e4449"/>
      <path id="Path_4852" data-name="Path 4852" d="M1435,1401.423s-6.465-.732-7.927,0-5.121,4.512-4.634,5.366,6.952-2.886,9.39-2.845a90.916,90.916,0,0,0,9.658-1.179Z" transform="translate(-1140.389 -1338.089)" fill="#3e4449"/>
      <path id="Path_4853" data-name="Path 4853" d="M1403.4,1547.557s6.952-2.4,8.659-2.883a32.613,32.613,0,0,1,5.569-.594s-.834,2.138-.458,2.3,2.085,1.2,2.085,1.2Z" transform="translate(-1125.623 -1449.261)" fill="#475056"/>
      <path id="Path_4854" data-name="Path 4854" d="M1520.72,1552.191s4.554-2.151,5.691-2.151a54.077,54.077,0,0,1,5.773,1.077l-.487,1.1Z" transform="translate(-1216.842 -1453.896)" fill="#475056"/>
      <path id="Path_4855" data-name="Path 4855" d="M1471.381,1276.148h-7.37l-.305-1.077,2.743-1.708-4.389-1.219-1.1-2.013,3.842-1.889-1.4-2.592h6.356l-.5,1.615-2.321-.807.979,3.491-.3,1.464,3.117.5Z" transform="translate(-1170.377 -1232.775)" fill="#7a231f"/>
      <path id="Path_4856" data-name="Path 4856" d="M1488.65,1554.959l.243-1.068,2.441-.292.732,1.38Z" transform="translate(-1191.906 -1456.663)" fill="#a9453d"/>
      <path id="Path_4857" data-name="Path 4857" d="M644.371,1232.454H632.3a2.936,2.936,0,0,1-2.928-2.928v-3.548a2.936,2.936,0,0,1,2.928-2.928h12.074a2.936,2.936,0,0,1,2.927,2.928v3.548A2.936,2.936,0,0,1,644.371,1232.454Z" transform="translate(-523.793 -1199.652)" fill="#272a2d"/>
    </g>
    <g id="Group_317" data-name="Group 317" transform="translate(461.244 626.869)">
      <path id="Path_4858" data-name="Path 4858" d="M1563.2,994.909s-.184-3-.163-4.3,3.228-5.023,4.318-5.023.726,3.433.545,4.5.363,2.036-.243,2.883-1.795,2.643-1.795,2.643Z" transform="translate(-1556.175 -980.955)" fill="#848383"/>
      <path id="Path_4859" data-name="Path 4859" d="M1614.22,1025.252l-5.148,4.934a15.765,15.765,0,0,1-2.939-3.306c-.12-.176-.234-.354-.345-.528a24.9,24.9,0,0,1-1.555-2.934q-.09-.194-.167-.367c-.285-.621,2.857-2.61,4.632-3.869a6.834,6.834,0,0,0,1.119-.923,5.036,5.036,0,0,0-.007,1.4,5.768,5.768,0,0,0,1.551,2.906A18.741,18.741,0,0,0,1614.22,1025.252Z" transform="translate(-1588.066 -1006.357)" fill="#f9e4a5"/>
      <path id="Path_4860" data-name="Path 4860" d="M1610.981,1025.09s-1.021,5.424-4.191,7.1c-.12-.176-.234-.354-.345-.527a24.946,24.946,0,0,1-1.555-2.934c.387-.8,3.03-2.492,4.6-3.607C1610.378,1025.108,1610.981,1025.09,1610.981,1025.09Z" transform="translate(-1588.72 -1011.667)" fill="#e8e8e8"/>
      <path id="Path_4861" data-name="Path 4861" d="M1583.188,1001.31s7.7-2.572,6.029-7.344-1.809-8.318-6.8-6.879-5.3,3.595-5.128,5.324S1581.141,1001.857,1583.188,1001.31Z" transform="translate(-1567.234 -981.867)" fill="#f9e4a5"/>
      <path id="Path_4862" data-name="Path 4862" d="M1580.578,978.3s-.783-.521.941-3.244c.89-1.4,1.682-2.725.423-5.008s-1.179-4.125-4.65-4.125-3.82-1.606-5.589-1.046-3.339,3.159-4.852,3.646-2.661,8.419.8,8.2a4.974,4.974,0,0,0,1.885-1.7c.583-1.048,3.535-3.435,4.474-2.656S1578.714,978.332,1580.578,978.3Z" transform="translate(-1558.004 -964.756)" fill="#383b3f"/>
      <path id="Path_4863" data-name="Path 4863" d="M1559.637,1075.9s-15.195,6.8-24.427,8.36c0,0-2.893-.2-2.99-3.755-.062-2.258,15.161-13.342,20.725-13.012S1561.559,1073.517,1559.637,1075.9Z" transform="translate(-1532.217 -1044.633)" fill="#a5a4a4"/>
      <path id="Path_4864" data-name="Path 4864" d="M1542.23,1025.771l-1.259,17.161-8.761,4.323a48.7,48.7,0,0,1,2.621-13.5c2.689-7.677,4.118-8.932,4.118-8.932S1541.367,1024.276,1542.23,1025.771Z" transform="translate(-1532.21 -1011.383)" fill="#a5a4a4"/>
      <path id="Path_4865" data-name="Path 4865" d="M1594.529,1535.471c-.069.761-.234,1.4-.576,1.564a1.292,1.292,0,0,1-.291.076H1582.1c-.309-.009-.485-.016-.485-.016s.029-1.428,2-1.706c1.589-.222,4.158-.981,5.422-2.627a3.582,3.582,0,0,0,.648-1.326c.636-2.583,4.8.9,4.8.9s.047.449.076,1.074A15.413,15.413,0,0,1,1594.529,1535.471Z" transform="translate(-1570.62 -1404.623)" fill="#383b3f"/>
      <path id="Path_4866" data-name="Path 4866" d="M1643.5,1537.111H1630.65a2.939,2.939,0,0,1,2.009-1.64,3.213,3.213,0,0,1,.411-.082,9.687,9.687,0,0,0,4.877-2.038,3.82,3.82,0,0,0,1.193-1.916c.636-2.583,4.8.9,4.8.9s.045.414.076,1C1644.085,1534.6,1644.1,1536.677,1643.5,1537.111Z" transform="translate(-1608.75 -1404.623)" fill="#383b3f"/>
      <path id="Path_4867" data-name="Path 4867" d="M1601.231,1245.72s-.009.467-.029,1.306c-.116,5.41-.578,26.325-1.017,37.985-.018.425-.033.834-.049,1.234-.009.212-.018.423-.024.632a126.507,126.507,0,0,1-1.8,15.573c-.986,5.631-1.987,9.464-1.987,9.464a9.3,9.3,0,0,1-6.189-.667s-1.012-8.739-1.4-14.027c-.127-1.715-.745-7.571-1.52-14.694-.6-5.509-1.3-11.776-1.936-17.473-.033-.3-.067-.607-.1-.905-1.03-9.215-1.885-16.719-1.885-16.719l6.641-.632Z" transform="translate(-1571.934 -1183.213)" fill="#404349"/>
      <path id="Path_4868" data-name="Path 4868" d="M1598.295,1306.221,1587.2,1286.3c-.6-5.509-1.3-11.775-1.935-17.473-.034-.3-.067-.608-.1-.906-1.03-9.215-1.885-16.719-1.885-16.719l6.641-.632,11.266.231Z" transform="translate(-1571.918 -1186.984)" fill="#383b3f"/>
      <path id="Path_4869" data-name="Path 4869" d="M1588.8,1247.166s6.207,30.686,11.266,45.494,5.121,18.924,5.121,18.924,4.641,1.005,6.685-.162c0,0,1.168-28.074-1.891-35.531-2.025-4.932-3.573-15.428-3.046-19.208s1.017-11.362,1.017-11.362Z" transform="translate(-1576.21 -1182.902)" fill="#404349"/>
      <path id="Path_4870" data-name="Path 4870" d="M1592.684,1097.769a6.526,6.526,0,0,1-2.468,4.285c-1.466,1.039-3.78,1.412-6.325,1.375a34.686,34.686,0,0,1-8.9-1.45,20.732,20.732,0,0,1-3.52-1.355c-3.931-2.049-3.375-4.779-3.279-14.992.1-10.423,6.512-23.9,7.667-26.154,2.055-4.016,10.781-2.694,10.781-2.694a17.093,17.093,0,0,1,4.73,8.374,33.458,33.458,0,0,1,.888,6.543c.472,7.911-.138,18.463.323,20.928A14.2,14.2,0,0,1,1592.684,1097.769Z" transform="translate(-1560.128 -1036.147)" fill="#878787"/>
      <path id="Path_4871" data-name="Path 4871" d="M1611.711,1039.62s1.428,3.379,1.139,3.98c0,0-7.84.741-11.03,3.012,0,0,1.05-3.281,2.325-4.1A71.061,71.061,0,0,1,1611.711,1039.62Z" transform="translate(-1586.334 -1022.964)" fill="#a5a4a4"/>
      <path id="Path_4872" data-name="Path 4872" d="M1645,1140.288c-16.236-6.178-6.966-29.029-6.966-29.029a11.758,11.758,0,0,1,6.541,2.961c.472,7.911-.138,18.463.322,20.928A14.132,14.132,0,0,1,1645,1140.288Z" transform="translate(-1612.44 -1078.667)" fill="#a5a4a4"/>
      <path id="Path_4873" data-name="Path 4873" d="M1628.644,1064.263s13.918,9.324,19.958,16.48c0,0-.367,2.855-2.318,3.989s-18.928-5.473-21.473-10.43S1625.611,1063.82,1628.644,1064.263Z" transform="translate(-1603.509 -1042.106)" fill="#878787"/>
      <path id="Path_4874" data-name="Path 4874" d="M1625.9,1199.77s-.89,1.542-1.746,1.177a4.424,4.424,0,0,0-3.869.08c-1.284.828-3.221,3.059-2.011,3.6s3.51-.9,4.053-1.144,1.493.242,2.541-.282a10.634,10.634,0,0,0,2.138-1.573Z" transform="translate(-1598.831 -1147.485)" fill="#f9e4a5"/>
      <path id="Path_4875" data-name="Path 4875" d="M1647.325,1147.073l11.418-15.613,8,1.55s-1.068,5.273-6.87,10.049c-5.98,4.921-9.279,5.9-9.279,5.9S1646.631,1149.638,1647.325,1147.073Z" transform="translate(-1621.651 -1094.373)" fill="#878787"/>
    </g>
    <path id="Path_4894" data-name="Path 4894" d="M626.072,1565.313l0,.33c0,.438-.245.8-.54.794l-348.161-1.649-106.787-.507-5.982-.027c-.3,0-.538-.363-.538-.8l0-.329c0-.441.245-.8.538-.8l5.978.026L601.01,1564.4l24.521.116C625.831,1564.515,626.072,1564.873,626.072,1565.313Z" transform="translate(-7.192 -802.517)" fill="#2e3552"/>
  </g>
</svg>
